ISO-10303-21;
HEADER;
/* Generated by software containing ST-Developer
 * from STEP Tools, Inc. (www.steptools.com) 
 */

FILE_DESCRIPTION(
/* description */ ('KiCad electronic assembly'),
/* implementation_level */ '2;1');

FILE_NAME(
/* name */ 'Touch ID Screwtop.step',
/* time_stamp */ '2026-08-20T16:36:42-07:00',
/* author */ (''),
/* organization */ (''),
/* preprocessor_version */ 'ST-DEVELOPER v20.1',
/* originating_system */ 'Autodesk Translation Framework v15.8.0.0',
/* authorisation */ '');

FILE_SCHEMA (('AUTOMOTIVE_DESIGN { 1 0 10303 214 3 1 1 }'));
ENDSEC;

DATA;
#10=MECHANICAL_DESIGN_GEOMETRIC_PRESENTATION_REPRESENTATION('',(#13),#2187);
#11=SHAPE_REPRESENTATION_RELATIONSHIP('SRR','None',#2193,#12);
#12=ADVANCED_BREP_SHAPE_REPRESENTATION('',(#14),#2186);
#13=STYLED_ITEM('',(#2204),#14);
#14=MANIFOLD_SOLID_BREP('Body9',#1267);
#15=B_SPLINE_CURVE_WITH_KNOTS('',3,(#2006,#2007,#2008,#2009,#2010,#2011,
#2012,#2013,#2014,#2015),.UNSPECIFIED.,.F.,.F.,(4,2,2,2,4),(0.153303545727469,
0.195420504415025,0.237209213760734,0.276147879993242,0.311305411896159),
 .UNSPECIFIED.);
#16=B_SPLINE_CURVE_WITH_KNOTS('',3,(#2025,#2026,#2027,#2028,#2029,#2030,
#2031,#2032,#2033,#2034),.UNSPECIFIED.,.F.,.F.,(4,2,2,2,4),(0.311305411896158,
0.346462943799075,0.385401610031582,0.427190319377293,0.46930727806485),
 .UNSPECIFIED.);
#17=B_SPLINE_CURVE_WITH_KNOTS('',3,(#2052,#2053,#2054,#2055,#2056,#2057,
#2058,#2059,#2060,#2061),.UNSPECIFIED.,.F.,.F.,(4,2,2,2,4),(0.153303545727467,
0.195420504415024,0.237209213760735,0.276147879993241,0.311305411896158),
 .UNSPECIFIED.);
#18=B_SPLINE_CURVE_WITH_KNOTS('',3,(#2072,#2073,#2074,#2075,#2076,#2077,
#2078,#2079,#2080,#2081),.UNSPECIFIED.,.F.,.F.,(4,2,2,2,4),(0.311305411896159,
0.346462943799076,0.385401610031584,0.427190319377293,0.46930727806485),
 .UNSPECIFIED.);
#19=TOROIDAL_SURFACE('',#1351,3.25,1.);
#20=TOROIDAL_SURFACE('',#1356,3.25,1.);
#21=TOROIDAL_SURFACE('',#1370,3.25,1.);
#22=TOROIDAL_SURFACE('',#1385,3.25,1.);
#23=FACE_BOUND('',#225,.T.);
#24=FACE_BOUND('',#228,.T.);
#25=FACE_BOUND('',#237,.T.);
#26=FACE_BOUND('',#240,.T.);
#27=FACE_BOUND('',#248,.T.);
#28=FACE_BOUND('',#249,.T.);
#29=FACE_BOUND('',#257,.T.);
#30=FACE_BOUND('',#268,.T.);
#31=CYLINDRICAL_SURFACE('',#1301,2.5);
#32=CYLINDRICAL_SURFACE('',#1306,2.5);
#33=CYLINDRICAL_SURFACE('',#1311,5.);
#34=CYLINDRICAL_SURFACE('',#1313,5.);
#35=CYLINDRICAL_SURFACE('',#1315,1.35000000000002);
#36=CYLINDRICAL_SURFACE('',#1318,1.35);
#37=CYLINDRICAL_SURFACE('',#1321,3.00000000000001);
#38=CYLINDRICAL_SURFACE('',#1325,2.99999999999999);
#39=CYLINDRICAL_SURFACE('',#1329,3.75);
#40=CYLINDRICAL_SURFACE('',#1332,3.75);
#41=CYLINDRICAL_SURFACE('',#1336,3.75);
#42=CYLINDRICAL_SURFACE('',#1339,3.75000000000001);
#43=CYLINDRICAL_SURFACE('',#1342,3.75);
#44=CYLINDRICAL_SURFACE('',#1347,3.75);
#45=CYLINDRICAL_SURFACE('',#1354,1.);
#46=CYLINDRICAL_SURFACE('',#1359,2.25);
#47=CYLINDRICAL_SURFACE('',#1361,2.5);
#48=CYLINDRICAL_SURFACE('',#1366,2.5);
#49=CYLINDRICAL_SURFACE('',#1367,2.25);
#50=CYLINDRICAL_SURFACE('',#1380,6.00000000000001);
#51=CYLINDRICAL_SURFACE('',#1383,6.00000000000001);
#52=CYLINDRICAL_SURFACE('',#1387,1.);
#53=CYLINDRICAL_SURFACE('',#1395,6.00000000000001);
#54=CYLINDRICAL_SURFACE('',#1397,6.00000000000001);
#55=CIRCLE('',#1271,2.5);
#56=CIRCLE('',#1272,2.);
#57=CIRCLE('',#1275,5.);
#58=CIRCLE('',#1276,5.50000000000001);
#59=CIRCLE('',#1279,5.);
#60=CIRCLE('',#1280,4.5);
#61=CIRCLE('',#1283,2.5);
#62=CIRCLE('',#1284,2.);
#63=CIRCLE('',#1287,2.5);
#64=CIRCLE('',#1288,2.);
#65=CIRCLE('',#1291,5.);
#66=CIRCLE('',#1292,4.5);
#67=CIRCLE('',#1295,5.);
#68=CIRCLE('',#1296,5.50000000000001);
#69=CIRCLE('',#1299,2.5);
#70=CIRCLE('',#1300,2.);
#71=CIRCLE('',#1302,2.5);
#72=CIRCLE('',#1307,2.5);
#73=CIRCLE('',#1309,3.25);
#74=CIRCLE('',#1310,3.25);
#75=CIRCLE('',#1316,1.35000000000002);
#76=CIRCLE('',#1317,1.35000000000002);
#77=CIRCLE('',#1319,1.35);
#78=CIRCLE('',#1320,1.35);
#79=CIRCLE('',#1322,3.00000000000001);
#80=CIRCLE('',#1323,3.00000000000001);
#81=CIRCLE('',#1326,2.99999999999999);
#82=CIRCLE('',#1327,2.99999999999999);
#83=CIRCLE('',#1330,3.75);
#84=CIRCLE('',#1331,3.75);
#85=CIRCLE('',#1333,3.75);
#86=CIRCLE('',#1334,3.75);
#87=CIRCLE('',#1337,3.75);
#88=CIRCLE('',#1338,3.75);
#89=CIRCLE('',#1340,3.75000000000001);
#90=CIRCLE('',#1341,3.75000000000001);
#91=CIRCLE('',#1343,3.75);
#92=CIRCLE('',#1344,3.75);
#93=CIRCLE('',#1348,3.75);
#94=CIRCLE('',#1349,3.75);
#95=CIRCLE('',#1352,2.25);
#96=CIRCLE('',#1353,1.);
#97=CIRCLE('',#1355,1.);
#98=CIRCLE('',#1357,2.25);
#99=CIRCLE('',#1360,2.25);
#100=CIRCLE('',#1362,2.5);
#101=CIRCLE('',#1364,2.5);
#102=CIRCLE('',#1368,2.25);
#103=CIRCLE('',#1371,0.999999999999995);
#104=CIRCLE('',#1372,3.25);
#105=CIRCLE('',#1374,3.25);
#106=CIRCLE('',#1376,6.00000000000001);
#107=CIRCLE('',#1377,6.00000000000001);
#108=CIRCLE('',#1378,6.00000000000001);
#109=CIRCLE('',#1379,6.00000000000001);
#110=CIRCLE('',#1381,6.00000000000001);
#111=CIRCLE('',#1384,6.00000000000001);
#112=CIRCLE('',#1386,0.999999999999996);
#113=CIRCLE('',#1393,6.00000000000001);
#114=CIRCLE('',#1394,6.00000000000001);
#115=CONICAL_SURFACE('',#1270,2.25,0.785398163397447);
#116=CONICAL_SURFACE('',#1274,5.25,0.785398163397448);
#117=CONICAL_SURFACE('',#1278,4.75,0.785398163397445);
#118=CONICAL_SURFACE('',#1282,2.25,0.785398163397447);
#119=CONICAL_SURFACE('',#1286,2.25,0.785398163397447);
#120=CONICAL_SURFACE('',#1290,4.75,0.785398163397445);
#121=CONICAL_SURFACE('',#1294,5.25,0.785398163397448);
#122=CONICAL_SURFACE('',#1298,2.25,0.785398163397447);
#123=FACE_OUTER_BOUND('',#195,.T.);
#124=FACE_OUTER_BOUND('',#196,.T.);
#125=FACE_OUTER_BOUND('',#197,.T.);
#126=FACE_OUTER_BOUND('',#198,.T.);
#127=FACE_OUTER_BOUND('',#199,.T.);
#128=FACE_OUTER_BOUND('',#200,.T.);
#129=FACE_OUTER_BOUND('',#201,.T.);
#130=FACE_OUTER_BOUND('',#202,.T.);
#131=FACE_OUTER_BOUND('',#203,.T.);
#132=FACE_OUTER_BOUND('',#204,.T.);
#133=FACE_OUTER_BOUND('',#205,.T.);
#134=FACE_OUTER_BOUND('',#206,.T.);
#135=FACE_OUTER_BOUND('',#207,.T.);
#136=FACE_OUTER_BOUND('',#208,.T.);
#137=FACE_OUTER_BOUND('',#209,.T.);
#138=FACE_OUTER_BOUND('',#210,.T.);
#139=FACE_OUTER_BOUND('',#211,.T.);
#140=FACE_OUTER_BOUND('',#212,.T.);
#141=FACE_OUTER_BOUND('',#213,.T.);
#142=FACE_OUTER_BOUND('',#214,.T.);
#143=FACE_OUTER_BOUND('',#215,.T.);
#144=FACE_OUTER_BOUND('',#216,.T.);
#145=FACE_OUTER_BOUND('',#217,.T.);
#146=FACE_OUTER_BOUND('',#218,.T.);
#147=FACE_OUTER_BOUND('',#219,.T.);
#148=FACE_OUTER_BOUND('',#220,.T.);
#149=FACE_OUTER_BOUND('',#221,.T.);
#150=FACE_OUTER_BOUND('',#222,.T.);
#151=FACE_OUTER_BOUND('',#223,.T.);
#152=FACE_OUTER_BOUND('',#224,.T.);
#153=FACE_OUTER_BOUND('',#226,.T.);
#154=FACE_OUTER_BOUND('',#227,.T.);
#155=FACE_OUTER_BOUND('',#229,.T.);
#156=FACE_OUTER_BOUND('',#230,.T.);
#157=FACE_OUTER_BOUND('',#231,.T.);
#158=FACE_OUTER_BOUND('',#232,.T.);
#159=FACE_OUTER_BOUND('',#233,.T.);
#160=FACE_OUTER_BOUND('',#234,.T.);
#161=FACE_OUTER_BOUND('',#235,.T.);
#162=FACE_OUTER_BOUND('',#236,.T.);
#163=FACE_OUTER_BOUND('',#238,.T.);
#164=FACE_OUTER_BOUND('',#239,.T.);
#165=FACE_OUTER_BOUND('',#241,.T.);
#166=FACE_OUTER_BOUND('',#242,.T.);
#167=FACE_OUTER_BOUND('',#243,.T.);
#168=FACE_OUTER_BOUND('',#244,.T.);
#169=FACE_OUTER_BOUND('',#245,.T.);
#170=FACE_OUTER_BOUND('',#246,.T.);
#171=FACE_OUTER_BOUND('',#247,.T.);
#172=FACE_OUTER_BOUND('',#250,.T.);
#173=FACE_OUTER_BOUND('',#251,.T.);
#174=FACE_OUTER_BOUND('',#252,.T.);
#175=FACE_OUTER_BOUND('',#253,.T.);
#176=FACE_OUTER_BOUND('',#254,.T.);
#177=FACE_OUTER_BOUND('',#255,.T.);
#178=FACE_OUTER_BOUND('',#256,.T.);
#179=FACE_OUTER_BOUND('',#258,.T.);
#180=FACE_OUTER_BOUND('',#259,.T.);
#181=FACE_OUTER_BOUND('',#260,.T.);
#182=FACE_OUTER_BOUND('',#261,.T.);
#183=FACE_OUTER_BOUND('',#262,.T.);
#184=FACE_OUTER_BOUND('',#263,.T.);
#185=FACE_OUTER_BOUND('',#264,.T.);
#186=FACE_OUTER_BOUND('',#265,.T.);
#187=FACE_OUTER_BOUND('',#266,.T.);
#188=FACE_OUTER_BOUND('',#267,.T.);
#189=FACE_OUTER_BOUND('',#269,.T.);
#190=FACE_OUTER_BOUND('',#270,.T.);
#191=FACE_OUTER_BOUND('',#271,.T.);
#192=FACE_OUTER_BOUND('',#272,.T.);
#193=FACE_OUTER_BOUND('',#273,.T.);
#194=FACE_OUTER_BOUND('',#274,.T.);
#195=EDGE_LOOP('',(#799,#800,#801,#802));
#196=EDGE_LOOP('',(#803,#804,#805,#806));
#197=EDGE_LOOP('',(#807,#808,#809,#810,#811));
#198=EDGE_LOOP('',(#812,#813,#814,#815));
#199=EDGE_LOOP('',(#816,#817,#818,#819));
#200=EDGE_LOOP('',(#820,#821,#822,#823));
#201=EDGE_LOOP('',(#824,#825,#826,#827));
#202=EDGE_LOOP('',(#828,#829,#830,#831));
#203=EDGE_LOOP('',(#832,#833,#834,#835));
#204=EDGE_LOOP('',(#836,#837,#838,#839));
#205=EDGE_LOOP('',(#840,#841,#842,#843));
#206=EDGE_LOOP('',(#844,#845,#846,#847));
#207=EDGE_LOOP('',(#848,#849,#850,#851));
#208=EDGE_LOOP('',(#852,#853,#854,#855));
#209=EDGE_LOOP('',(#856,#857,#858,#859,#860));
#210=EDGE_LOOP('',(#861,#862,#863,#864));
#211=EDGE_LOOP('',(#865,#866,#867,#868));
#212=EDGE_LOOP('',(#869,#870,#871,#872));
#213=EDGE_LOOP('',(#873,#874,#875,#876,#877,#878,#879,#880));
#214=EDGE_LOOP('',(#881,#882,#883,#884));
#215=EDGE_LOOP('',(#885,#886,#887,#888));
#216=EDGE_LOOP('',(#889,#890,#891,#892,#893,#894,#895,#896));
#217=EDGE_LOOP('',(#897,#898,#899,#900));
#218=EDGE_LOOP('',(#901,#902,#903,#904));
#219=EDGE_LOOP('',(#905,#906,#907,#908));
#220=EDGE_LOOP('',(#909,#910,#911,#912,#913,#914));
#221=EDGE_LOOP('',(#915,#916,#917,#918));
#222=EDGE_LOOP('',(#919,#920,#921,#922));
#223=EDGE_LOOP('',(#923,#924,#925,#926));
#224=EDGE_LOOP('',(#927));
#225=EDGE_LOOP('',(#928));
#226=EDGE_LOOP('',(#929,#930,#931,#932));
#227=EDGE_LOOP('',(#933));
#228=EDGE_LOOP('',(#934));
#229=EDGE_LOOP('',(#935,#936,#937,#938));
#230=EDGE_LOOP('',(#939,#940,#941,#942));
#231=EDGE_LOOP('',(#943,#944,#945,#946,#947,#948,#949,#950));
#232=EDGE_LOOP('',(#951,#952,#953,#954));
#233=EDGE_LOOP('',(#955,#956,#957,#958));
#234=EDGE_LOOP('',(#959,#960,#961,#962));
#235=EDGE_LOOP('',(#963,#964,#965,#966));
#236=EDGE_LOOP('',(#967,#968,#969,#970,#971,#972));
#237=EDGE_LOOP('',(#973));
#238=EDGE_LOOP('',(#974,#975,#976,#977));
#239=EDGE_LOOP('',(#978,#979,#980,#981,#982));
#240=EDGE_LOOP('',(#983));
#241=EDGE_LOOP('',(#984,#985,#986,#987));
#242=EDGE_LOOP('',(#988,#989,#990,#991));
#243=EDGE_LOOP('',(#992,#993,#994,#995));
#244=EDGE_LOOP('',(#996,#997,#998,#999));
#245=EDGE_LOOP('',(#1000,#1001,#1002,#1003));
#246=EDGE_LOOP('',(#1004,#1005,#1006,#1007));
#247=EDGE_LOOP('',(#1008,#1009,#1010,#1011,#1012,#1013,#1014,#1015,#1016,
#1017,#1018,#1019,#1020,#1021,#1022,#1023,#1024,#1025,#1026,#1027,#1028,
#1029,#1030,#1031,#1032,#1033,#1034,#1035,#1036));
#248=EDGE_LOOP('',(#1037));
#249=EDGE_LOOP('',(#1038));
#250=EDGE_LOOP('',(#1039,#1040,#1041,#1042));
#251=EDGE_LOOP('',(#1043,#1044,#1045,#1046));
#252=EDGE_LOOP('',(#1047,#1048,#1049,#1050));
#253=EDGE_LOOP('',(#1051,#1052,#1053,#1054,#1055,#1056,#1057));
#254=EDGE_LOOP('',(#1058,#1059,#1060,#1061));
#255=EDGE_LOOP('',(#1062,#1063,#1064,#1065,#1066,#1067,#1068,#1069));
#256=EDGE_LOOP('',(#1070,#1071,#1072,#1073,#1074,#1075));
#257=EDGE_LOOP('',(#1076,#1077,#1078,#1079,#1080,#1081,#1082,#1083));
#258=EDGE_LOOP('',(#1084,#1085,#1086,#1087));
#259=EDGE_LOOP('',(#1088,#1089,#1090,#1091));
#260=EDGE_LOOP('',(#1092,#1093,#1094,#1095));
#261=EDGE_LOOP('',(#1096,#1097,#1098,#1099));
#262=EDGE_LOOP('',(#1100,#1101,#1102,#1103));
#263=EDGE_LOOP('',(#1104,#1105,#1106,#1107));
#264=EDGE_LOOP('',(#1108,#1109,#1110,#1111));
#265=EDGE_LOOP('',(#1112,#1113,#1114,#1115));
#266=EDGE_LOOP('',(#1116,#1117,#1118,#1119,#1120,#1121,#1122));
#267=EDGE_LOOP('',(#1123,#1124,#1125,#1126));
#268=EDGE_LOOP('',(#1127,#1128,#1129,#1130,#1131,#1132,#1133,#1134));
#269=EDGE_LOOP('',(#1135,#1136,#1137,#1138));
#270=EDGE_LOOP('',(#1139,#1140,#1141,#1142));
#271=EDGE_LOOP('',(#1143,#1144,#1145,#1146));
#272=EDGE_LOOP('',(#1147,#1148,#1149,#1150));
#273=EDGE_LOOP('',(#1151,#1152,#1153,#1154));
#274=EDGE_LOOP('',(#1155,#1156,#1157,#1158));
#275=LINE('',#1787,#391);
#276=LINE('',#1789,#392);
#277=LINE('',#1791,#393);
#278=LINE('',#1792,#394);
#279=LINE('',#1797,#395);
#280=LINE('',#1802,#396);
#281=LINE('',#1803,#397);
#282=LINE('',#1805,#398);
#283=LINE('',#1806,#399);
#284=LINE('',#1810,#400);
#285=LINE('',#1816,#401);
#286=LINE('',#1817,#402);
#287=LINE('',#1818,#403);
#288=LINE('',#1822,#404);
#289=LINE('',#1827,#405);
#290=LINE('',#1829,#406);
#291=LINE('',#1830,#407);
#292=LINE('',#1835,#408);
#293=LINE('',#1840,#409);
#294=LINE('',#1841,#410);
#295=LINE('',#1842,#411);
#296=LINE('',#1847,#412);
#297=LINE('',#1852,#413);
#298=LINE('',#1853,#414);
#299=LINE('',#1854,#415);
#300=LINE('',#1858,#416);
#301=LINE('',#1864,#417);
#302=LINE('',#1865,#418);
#303=LINE('',#1866,#419);
#304=LINE('',#1870,#420);
#305=LINE('',#1876,#421);
#306=LINE('',#1877,#422);
#307=LINE('',#1879,#423);
#308=LINE('',#1880,#424);
#309=LINE('',#1886,#425);
#310=LINE('',#1889,#426);
#311=LINE('',#1892,#427);
#312=LINE('',#1894,#428);
#313=LINE('',#1895,#429);
#314=LINE('',#1898,#430);
#315=LINE('',#1900,#431);
#316=LINE('',#1901,#432);
#317=LINE('',#1904,#433);
#318=LINE('',#1906,#434);
#319=LINE('',#1907,#435);
#320=LINE('',#1910,#436);
#321=LINE('',#1914,#437);
#322=LINE('',#1916,#438);
#323=LINE('',#1920,#439);
#324=LINE('',#1923,#440);
#325=LINE('',#1925,#441);
#326=LINE('',#1926,#442);
#327=LINE('',#1928,#443);
#328=LINE('',#1930,#444);
#329=LINE('',#1936,#445);
#330=LINE('',#1942,#446);
#331=LINE('',#1948,#447);
#332=LINE('',#1955,#448);
#333=LINE('',#1962,#449);
#334=LINE('',#1969,#450);
#335=LINE('',#1972,#451);
#336=LINE('',#1975,#452);
#337=LINE('',#1976,#453);
#338=LINE('',#1977,#454);
#339=LINE('',#1983,#455);
#340=LINE('',#1989,#456);
#341=LINE('',#1995,#457);
#342=LINE('',#1997,#458);
#343=LINE('',#1998,#459);
#344=LINE('',#2022,#460);
#345=LINE('',#2038,#461);
#346=LINE('',#2040,#462);
#347=LINE('',#2041,#463);
#348=LINE('',#2044,#464);
#349=LINE('',#2050,#465);
#350=LINE('',#2063,#466);
#351=LINE('',#2065,#467);
#352=LINE('',#2067,#468);
#353=LINE('',#2069,#469);
#354=LINE('',#2071,#470);
#355=LINE('',#2084,#471);
#356=LINE('',#2086,#472);
#357=LINE('',#2092,#473);
#358=LINE('',#2094,#474);
#359=LINE('',#2096,#475);
#360=LINE('',#2098,#476);
#361=LINE('',#2100,#477);
#362=LINE('',#2101,#478);
#363=LINE('',#2108,#479);
#364=LINE('',#2111,#480);
#365=LINE('',#2112,#481);
#366=LINE('',#2116,#482);
#367=LINE('',#2120,#483);
#368=LINE('',#2124,#484);
#369=LINE('',#2128,#485);
#370=LINE('',#2132,#486);
#371=LINE('',#2135,#487);
#372=LINE('',#2138,#488);
#373=LINE('',#2139,#489);
#374=LINE('',#2143,#490);
#375=LINE('',#2149,#491);
#376=LINE('',#2151,#492);
#377=LINE('',#2152,#493);
#378=LINE('',#2155,#494);
#379=LINE('',#2156,#495);
#380=LINE('',#2159,#496);
#381=LINE('',#2160,#497);
#382=LINE('',#2162,#498);
#383=LINE('',#2163,#499);
#384=LINE('',#2166,#500);
#385=LINE('',#2168,#501);
#386=LINE('',#2172,#502);
#387=LINE('',#2175,#503);
#388=LINE('',#2176,#504);
#389=LINE('',#2178,#505);
#390=LINE('',#2180,#506);
#391=VECTOR('',#1405,10.);
#392=VECTOR('',#1406,10.);
#393=VECTOR('',#1407,10.);
#394=VECTOR('',#1408,10.);
#395=VECTOR('',#1413,10.);
#396=VECTOR('',#1418,10.);
#397=VECTOR('',#1419,10.);
#398=VECTOR('',#1420,10.);
#399=VECTOR('',#1421,10.);
#400=VECTOR('',#1424,10.);
#401=VECTOR('',#1431,10.);
#402=VECTOR('',#1432,10.);
#403=VECTOR('',#1433,10.);
#404=VECTOR('',#1436,10.);
#405=VECTOR('',#1443,10.);
#406=VECTOR('',#1444,10.);
#407=VECTOR('',#1445,10.);
#408=VECTOR('',#1450,10.);
#409=VECTOR('',#1455,10.);
#410=VECTOR('',#1456,10.);
#411=VECTOR('',#1457,10.);
#412=VECTOR('',#1462,10.);
#413=VECTOR('',#1467,10.);
#414=VECTOR('',#1468,10.);
#415=VECTOR('',#1469,10.);
#416=VECTOR('',#1472,10.);
#417=VECTOR('',#1479,10.);
#418=VECTOR('',#1480,10.);
#419=VECTOR('',#1481,10.);
#420=VECTOR('',#1484,10.);
#421=VECTOR('',#1491,10.);
#422=VECTOR('',#1492,10.);
#423=VECTOR('',#1493,10.);
#424=VECTOR('',#1494,10.);
#425=VECTOR('',#1503,10.);
#426=VECTOR('',#1506,10.);
#427=VECTOR('',#1509,10.);
#428=VECTOR('',#1510,10.);
#429=VECTOR('',#1511,10.);
#430=VECTOR('',#1514,10.);
#431=VECTOR('',#1515,3.75);
#432=VECTOR('',#1516,10.);
#433=VECTOR('',#1519,10.);
#434=VECTOR('',#1520,10.);
#435=VECTOR('',#1521,10.);
#436=VECTOR('',#1524,10.);
#437=VECTOR('',#1529,10.);
#438=VECTOR('',#1530,10.);
#439=VECTOR('',#1533,10.);
#440=VECTOR('',#1536,10.);
#441=VECTOR('',#1539,10.);
#442=VECTOR('',#1540,10.);
#443=VECTOR('',#1543,10.);
#444=VECTOR('',#1546,10.);
#445=VECTOR('',#1553,1.35000000000002);
#446=VECTOR('',#1560,1.35);
#447=VECTOR('',#1567,3.00000000000001);
#448=VECTOR('',#1576,2.99999999999999);
#449=VECTOR('',#1585,10.);
#450=VECTOR('',#1592,10.);
#451=VECTOR('',#1595,10.);
#452=VECTOR('',#1598,10.);
#453=VECTOR('',#1599,10.);
#454=VECTOR('',#1600,10.);
#455=VECTOR('',#1607,10.);
#456=VECTOR('',#1614,10.);
#457=VECTOR('',#1621,10.);
#458=VECTOR('',#1624,10.);
#459=VECTOR('',#1625,10.);
#460=VECTOR('',#1646,10.);
#461=VECTOR('',#1653,10.);
#462=VECTOR('',#1654,10.);
#463=VECTOR('',#1655,10.);
#464=VECTOR('',#1658,10.);
#465=VECTOR('',#1667,10.);
#466=VECTOR('',#1668,10.);
#467=VECTOR('',#1669,10.);
#468=VECTOR('',#1670,10.);
#469=VECTOR('',#1671,10.);
#470=VECTOR('',#1672,10.);
#471=VECTOR('',#1675,10.);
#472=VECTOR('',#1678,10.);
#473=VECTOR('',#1687,10.);
#474=VECTOR('',#1688,10.);
#475=VECTOR('',#1689,10.);
#476=VECTOR('',#1690,10.);
#477=VECTOR('',#1691,10.);
#478=VECTOR('',#1692,10.);
#479=VECTOR('',#1701,10.);
#480=VECTOR('',#1704,10.);
#481=VECTOR('',#1705,10.);
#482=VECTOR('',#1708,10.);
#483=VECTOR('',#1711,10.);
#484=VECTOR('',#1714,10.);
#485=VECTOR('',#1717,10.);
#486=VECTOR('',#1722,10.);
#487=VECTOR('',#1725,10.);
#488=VECTOR('',#1728,10.);
#489=VECTOR('',#1729,10.);
#490=VECTOR('',#1734,10.);
#491=VECTOR('',#1743,10.);
#492=VECTOR('',#1744,10.);
#493=VECTOR('',#1745,10.);
#494=VECTOR('',#1748,10.);
#495=VECTOR('',#1749,10.);
#496=VECTOR('',#1752,10.);
#497=VECTOR('',#1753,10.);
#498=VECTOR('',#1756,10.);
#499=VECTOR('',#1757,10.);
#500=VECTOR('',#1760,10.);
#501=VECTOR('',#1761,10.);
#502=VECTOR('',#1764,10.);
#503=VECTOR('',#1769,10.);
#504=VECTOR('',#1770,10.);
#505=VECTOR('',#1773,10.);
#506=VECTOR('',#1776,10.);
#507=VERTEX_POINT('',#1785);
#508=VERTEX_POINT('',#1786);
#509=VERTEX_POINT('',#1788);
#510=VERTEX_POINT('',#1790);
#511=VERTEX_POINT('',#1794);
#512=VERTEX_POINT('',#1796);
#513=VERTEX_POINT('',#1800);
#514=VERTEX_POINT('',#1801);
#515=VERTEX_POINT('',#1804);
#516=VERTEX_POINT('',#1808);
#517=VERTEX_POINT('',#1809);
#518=VERTEX_POINT('',#1814);
#519=VERTEX_POINT('',#1815);
#520=VERTEX_POINT('',#1820);
#521=VERTEX_POINT('',#1821);
#522=VERTEX_POINT('',#1826);
#523=VERTEX_POINT('',#1828);
#524=VERTEX_POINT('',#1832);
#525=VERTEX_POINT('',#1834);
#526=VERTEX_POINT('',#1838);
#527=VERTEX_POINT('',#1839);
#528=VERTEX_POINT('',#1844);
#529=VERTEX_POINT('',#1846);
#530=VERTEX_POINT('',#1850);
#531=VERTEX_POINT('',#1851);
#532=VERTEX_POINT('',#1856);
#533=VERTEX_POINT('',#1857);
#534=VERTEX_POINT('',#1862);
#535=VERTEX_POINT('',#1863);
#536=VERTEX_POINT('',#1868);
#537=VERTEX_POINT('',#1869);
#538=VERTEX_POINT('',#1874);
#539=VERTEX_POINT('',#1875);
#540=VERTEX_POINT('',#1878);
#541=VERTEX_POINT('',#1885);
#542=VERTEX_POINT('',#1887);
#543=VERTEX_POINT('',#1891);
#544=VERTEX_POINT('',#1893);
#545=VERTEX_POINT('',#1897);
#546=VERTEX_POINT('',#1899);
#547=VERTEX_POINT('',#1903);
#548=VERTEX_POINT('',#1905);
#549=VERTEX_POINT('',#1909);
#550=VERTEX_POINT('',#1913);
#551=VERTEX_POINT('',#1915);
#552=VERTEX_POINT('',#1917);
#553=VERTEX_POINT('',#1919);
#554=VERTEX_POINT('',#1921);
#555=VERTEX_POINT('',#1933);
#556=VERTEX_POINT('',#1935);
#557=VERTEX_POINT('',#1939);
#558=VERTEX_POINT('',#1941);
#559=VERTEX_POINT('',#1945);
#560=VERTEX_POINT('',#1947);
#561=VERTEX_POINT('',#1952);
#562=VERTEX_POINT('',#1954);
#563=VERTEX_POINT('',#1959);
#564=VERTEX_POINT('',#1961);
#565=VERTEX_POINT('',#1965);
#566=VERTEX_POINT('',#1966);
#567=VERTEX_POINT('',#1968);
#568=VERTEX_POINT('',#1970);
#569=VERTEX_POINT('',#1974);
#570=VERTEX_POINT('',#1979);
#571=VERTEX_POINT('',#1981);
#572=VERTEX_POINT('',#1985);
#573=VERTEX_POINT('',#1987);
#574=VERTEX_POINT('',#1991);
#575=VERTEX_POINT('',#1993);
#576=VERTEX_POINT('',#2005);
#577=VERTEX_POINT('',#2016);
#578=VERTEX_POINT('',#2020);
#579=VERTEX_POINT('',#2024);
#580=VERTEX_POINT('',#2037);
#581=VERTEX_POINT('',#2039);
#582=VERTEX_POINT('',#2043);
#583=VERTEX_POINT('',#2049);
#584=VERTEX_POINT('',#2051);
#585=VERTEX_POINT('',#2062);
#586=VERTEX_POINT('',#2064);
#587=VERTEX_POINT('',#2066);
#588=VERTEX_POINT('',#2068);
#589=VERTEX_POINT('',#2070);
#590=VERTEX_POINT('',#2082);
#591=VERTEX_POINT('',#2091);
#592=VERTEX_POINT('',#2093);
#593=VERTEX_POINT('',#2095);
#594=VERTEX_POINT('',#2097);
#595=VERTEX_POINT('',#2099);
#596=VERTEX_POINT('',#2103);
#597=VERTEX_POINT('',#2107);
#598=VERTEX_POINT('',#2110);
#599=VERTEX_POINT('',#2114);
#600=VERTEX_POINT('',#2115);
#601=VERTEX_POINT('',#2117);
#602=VERTEX_POINT('',#2119);
#603=VERTEX_POINT('',#2121);
#604=VERTEX_POINT('',#2123);
#605=VERTEX_POINT('',#2125);
#606=VERTEX_POINT('',#2127);
#607=VERTEX_POINT('',#2131);
#608=VERTEX_POINT('',#2133);
#609=VERTEX_POINT('',#2137);
#610=VERTEX_POINT('',#2141);
#611=VERTEX_POINT('',#2148);
#612=VERTEX_POINT('',#2150);
#613=VERTEX_POINT('',#2154);
#614=VERTEX_POINT('',#2158);
#615=VERTEX_POINT('',#2165);
#616=VERTEX_POINT('',#2167);
#617=VERTEX_POINT('',#2169);
#618=VERTEX_POINT('',#2171);
#619=EDGE_CURVE('',#507,#508,#275,.T.);
#620=EDGE_CURVE('',#508,#509,#276,.T.);
#621=EDGE_CURVE('',#509,#510,#277,.T.);
#622=EDGE_CURVE('',#510,#507,#278,.T.);
#623=EDGE_CURVE('',#507,#511,#55,.T.);
#624=EDGE_CURVE('',#511,#512,#279,.T.);
#625=EDGE_CURVE('',#512,#508,#56,.T.);
#626=EDGE_CURVE('',#513,#514,#280,.T.);
#627=EDGE_CURVE('',#514,#512,#281,.T.);
#628=EDGE_CURVE('',#511,#515,#282,.T.);
#629=EDGE_CURVE('',#515,#513,#283,.T.);
#630=EDGE_CURVE('',#516,#517,#284,.T.);
#631=EDGE_CURVE('',#517,#514,#57,.T.);
#632=EDGE_CURVE('',#513,#516,#58,.T.);
#633=EDGE_CURVE('',#518,#519,#285,.T.);
#634=EDGE_CURVE('',#519,#517,#286,.T.);
#635=EDGE_CURVE('',#516,#518,#287,.T.);
#636=EDGE_CURVE('',#520,#521,#288,.T.);
#637=EDGE_CURVE('',#521,#519,#59,.T.);
#638=EDGE_CURVE('',#518,#520,#60,.T.);
#639=EDGE_CURVE('',#520,#522,#289,.T.);
#640=EDGE_CURVE('',#522,#523,#290,.T.);
#641=EDGE_CURVE('',#523,#521,#291,.T.);
#642=EDGE_CURVE('',#522,#524,#61,.T.);
#643=EDGE_CURVE('',#524,#525,#292,.T.);
#644=EDGE_CURVE('',#525,#523,#62,.T.);
#645=EDGE_CURVE('',#526,#527,#293,.T.);
#646=EDGE_CURVE('',#527,#525,#294,.T.);
#647=EDGE_CURVE('',#524,#526,#295,.T.);
#648=EDGE_CURVE('',#526,#528,#63,.T.);
#649=EDGE_CURVE('',#528,#529,#296,.T.);
#650=EDGE_CURVE('',#529,#527,#64,.T.);
#651=EDGE_CURVE('',#530,#531,#297,.T.);
#652=EDGE_CURVE('',#531,#529,#298,.T.);
#653=EDGE_CURVE('',#528,#530,#299,.T.);
#654=EDGE_CURVE('',#532,#533,#300,.T.);
#655=EDGE_CURVE('',#533,#531,#65,.T.);
#656=EDGE_CURVE('',#530,#532,#66,.T.);
#657=EDGE_CURVE('',#534,#535,#301,.T.);
#658=EDGE_CURVE('',#535,#533,#302,.T.);
#659=EDGE_CURVE('',#532,#534,#303,.T.);
#660=EDGE_CURVE('',#536,#537,#304,.T.);
#661=EDGE_CURVE('',#537,#535,#67,.T.);
#662=EDGE_CURVE('',#534,#536,#68,.T.);
#663=EDGE_CURVE('',#538,#539,#305,.T.);
#664=EDGE_CURVE('',#539,#537,#306,.T.);
#665=EDGE_CURVE('',#536,#540,#307,.T.);
#666=EDGE_CURVE('',#540,#538,#308,.T.);
#667=EDGE_CURVE('',#538,#510,#69,.T.);
#668=EDGE_CURVE('',#509,#539,#70,.T.);
#669=EDGE_CURVE('',#522,#541,#309,.T.);
#670=EDGE_CURVE('',#541,#542,#71,.T.);
#671=EDGE_CURVE('',#542,#524,#310,.T.);
#672=EDGE_CURVE('',#543,#511,#311,.T.);
#673=EDGE_CURVE('',#543,#544,#312,.F.);
#674=EDGE_CURVE('',#515,#544,#313,.T.);
#675=EDGE_CURVE('',#513,#545,#314,.T.);
#676=EDGE_CURVE('',#546,#545,#315,.T.);
#677=EDGE_CURVE('',#546,#541,#316,.F.);
#678=EDGE_CURVE('',#547,#540,#317,.T.);
#679=EDGE_CURVE('',#547,#548,#318,.F.);
#680=EDGE_CURVE('',#538,#548,#319,.T.);
#681=EDGE_CURVE('',#507,#549,#320,.T.);
#682=EDGE_CURVE('',#549,#543,#72,.T.);
#683=EDGE_CURVE('',#550,#510,#321,.T.);
#684=EDGE_CURVE('',#550,#551,#322,.F.);
#685=EDGE_CURVE('',#552,#551,#73,.T.);
#686=EDGE_CURVE('',#553,#552,#323,.T.);
#687=EDGE_CURVE('',#554,#553,#74,.T.);
#688=EDGE_CURVE('',#554,#549,#324,.F.);
#689=EDGE_CURVE('',#533,#519,#325,.T.);
#690=EDGE_CURVE('',#521,#531,#326,.T.);
#691=EDGE_CURVE('',#517,#535,#327,.T.);
#692=EDGE_CURVE('',#537,#514,#328,.T.);
#693=EDGE_CURVE('',#555,#555,#75,.T.);
#694=EDGE_CURVE('',#555,#556,#329,.T.);
#695=EDGE_CURVE('',#556,#556,#76,.T.);
#696=EDGE_CURVE('',#557,#557,#77,.T.);
#697=EDGE_CURVE('',#557,#558,#330,.T.);
#698=EDGE_CURVE('',#558,#558,#78,.T.);
#699=EDGE_CURVE('',#559,#559,#79,.T.);
#700=EDGE_CURVE('',#559,#560,#331,.T.);
#701=EDGE_CURVE('',#560,#560,#80,.T.);
#702=EDGE_CURVE('',#561,#561,#81,.T.);
#703=EDGE_CURVE('',#561,#562,#332,.T.);
#704=EDGE_CURVE('',#562,#562,#82,.T.);
#705=EDGE_CURVE('',#540,#563,#83,.T.);
#706=EDGE_CURVE('',#564,#563,#333,.T.);
#707=EDGE_CURVE('',#564,#547,#84,.T.);
#708=EDGE_CURVE('',#565,#566,#85,.T.);
#709=EDGE_CURVE('',#566,#567,#334,.T.);
#710=EDGE_CURVE('',#567,#568,#86,.T.);
#711=EDGE_CURVE('',#568,#565,#335,.T.);
#712=EDGE_CURVE('',#569,#528,#336,.T.);
#713=EDGE_CURVE('',#569,#567,#337,.F.);
#714=EDGE_CURVE('',#566,#536,#338,.T.);
#715=EDGE_CURVE('',#570,#515,#87,.T.);
#716=EDGE_CURVE('',#544,#571,#88,.T.);
#717=EDGE_CURVE('',#571,#570,#339,.T.);
#718=EDGE_CURVE('',#572,#546,#89,.T.);
#719=EDGE_CURVE('',#545,#573,#90,.T.);
#720=EDGE_CURVE('',#572,#573,#340,.T.);
#721=EDGE_CURVE('',#574,#564,#91,.T.);
#722=EDGE_CURVE('',#575,#563,#92,.T.);
#723=EDGE_CURVE('',#574,#575,#341,.T.);
#724=EDGE_CURVE('',#568,#574,#342,.T.);
#725=EDGE_CURVE('',#565,#575,#343,.T.);
#726=EDGE_CURVE('',#571,#572,#93,.T.);
#727=EDGE_CURVE('',#570,#573,#94,.T.);
#728=EDGE_CURVE('',#551,#576,#15,.T.);
#729=EDGE_CURVE('',#576,#577,#95,.T.);
#730=EDGE_CURVE('',#577,#552,#96,.T.);
#731=EDGE_CURVE('',#578,#553,#97,.T.);
#732=EDGE_CURVE('',#577,#578,#344,.T.);
#733=EDGE_CURVE('',#579,#554,#16,.T.);
#734=EDGE_CURVE('',#578,#579,#98,.T.);
#735=EDGE_CURVE('',#577,#580,#345,.T.);
#736=EDGE_CURVE('',#581,#580,#346,.T.);
#737=EDGE_CURVE('',#578,#581,#347,.T.);
#738=EDGE_CURVE('',#576,#582,#348,.T.);
#739=EDGE_CURVE('',#580,#582,#99,.T.);
#740=EDGE_CURVE('',#548,#550,#100,.T.);
#741=EDGE_CURVE('',#583,#579,#349,.T.);
#742=EDGE_CURVE('',#584,#583,#17,.T.);
#743=EDGE_CURVE('',#585,#584,#350,.T.);
#744=EDGE_CURVE('',#586,#585,#351,.T.);
#745=EDGE_CURVE('',#587,#586,#352,.T.);
#746=EDGE_CURVE('',#588,#587,#353,.T.);
#747=EDGE_CURVE('',#589,#588,#354,.T.);
#748=EDGE_CURVE('',#582,#589,#18,.T.);
#749=EDGE_CURVE('',#590,#569,#101,.T.);
#750=EDGE_CURVE('',#542,#590,#355,.F.);
#751=EDGE_CURVE('',#526,#590,#356,.T.);
#752=EDGE_CURVE('',#583,#581,#102,.T.);
#753=EDGE_CURVE('',#585,#591,#357,.T.);
#754=EDGE_CURVE('',#591,#592,#358,.T.);
#755=EDGE_CURVE('',#593,#592,#359,.F.);
#756=EDGE_CURVE('',#593,#594,#360,.T.);
#757=EDGE_CURVE('',#594,#595,#361,.T.);
#758=EDGE_CURVE('',#586,#595,#362,.T.);
#759=EDGE_CURVE('',#581,#596,#103,.T.);
#760=EDGE_CURVE('',#596,#584,#104,.T.);
#761=EDGE_CURVE('',#597,#596,#363,.T.);
#762=EDGE_CURVE('',#589,#597,#105,.T.);
#763=EDGE_CURVE('',#588,#598,#364,.T.);
#764=EDGE_CURVE('',#598,#591,#365,.T.);
#765=EDGE_CURVE('',#599,#600,#366,.T.);
#766=EDGE_CURVE('',#600,#601,#106,.T.);
#767=EDGE_CURVE('',#601,#602,#367,.T.);
#768=EDGE_CURVE('',#602,#603,#107,.T.);
#769=EDGE_CURVE('',#603,#604,#368,.T.);
#770=EDGE_CURVE('',#604,#605,#108,.T.);
#771=EDGE_CURVE('',#605,#606,#369,.T.);
#772=EDGE_CURVE('',#606,#599,#109,.T.);
#773=EDGE_CURVE('',#604,#607,#370,.T.);
#774=EDGE_CURVE('',#608,#607,#110,.T.);
#775=EDGE_CURVE('',#605,#608,#371,.T.);
#776=EDGE_CURVE('',#609,#608,#372,.T.);
#777=EDGE_CURVE('',#606,#609,#373,.T.);
#778=EDGE_CURVE('',#610,#609,#111,.T.);
#779=EDGE_CURVE('',#599,#610,#374,.T.);
#780=EDGE_CURVE('',#597,#580,#112,.T.);
#781=EDGE_CURVE('',#592,#611,#375,.T.);
#782=EDGE_CURVE('',#611,#612,#376,.F.);
#783=EDGE_CURVE('',#612,#593,#377,.T.);
#784=EDGE_CURVE('',#613,#612,#378,.T.);
#785=EDGE_CURVE('',#613,#594,#379,.T.);
#786=EDGE_CURVE('',#595,#614,#380,.T.);
#787=EDGE_CURVE('',#587,#614,#381,.T.);
#788=EDGE_CURVE('',#614,#613,#382,.T.);
#789=EDGE_CURVE('',#611,#598,#383,.T.);
#790=EDGE_CURVE('',#615,#610,#384,.T.);
#791=EDGE_CURVE('',#607,#616,#385,.T.);
#792=EDGE_CURVE('',#616,#617,#113,.T.);
#793=EDGE_CURVE('',#617,#618,#386,.T.);
#794=EDGE_CURVE('',#618,#615,#114,.T.);
#795=EDGE_CURVE('',#602,#617,#387,.T.);
#796=EDGE_CURVE('',#603,#616,#388,.T.);
#797=EDGE_CURVE('',#601,#618,#389,.T.);
#798=EDGE_CURVE('',#600,#615,#390,.T.);
#799=ORIENTED_EDGE('',*,*,#619,.T.);
#800=ORIENTED_EDGE('',*,*,#620,.T.);
#801=ORIENTED_EDGE('',*,*,#621,.T.);
#802=ORIENTED_EDGE('',*,*,#622,.T.);
#803=ORIENTED_EDGE('',*,*,#619,.F.);
#804=ORIENTED_EDGE('',*,*,#623,.T.);
#805=ORIENTED_EDGE('',*,*,#624,.T.);
#806=ORIENTED_EDGE('',*,*,#625,.T.);
#807=ORIENTED_EDGE('',*,*,#626,.T.);
#808=ORIENTED_EDGE('',*,*,#627,.T.);
#809=ORIENTED_EDGE('',*,*,#624,.F.);
#810=ORIENTED_EDGE('',*,*,#628,.T.);
#811=ORIENTED_EDGE('',*,*,#629,.T.);
#812=ORIENTED_EDGE('',*,*,#630,.T.);
#813=ORIENTED_EDGE('',*,*,#631,.T.);
#814=ORIENTED_EDGE('',*,*,#626,.F.);
#815=ORIENTED_EDGE('',*,*,#632,.T.);
#816=ORIENTED_EDGE('',*,*,#633,.T.);
#817=ORIENTED_EDGE('',*,*,#634,.T.);
#818=ORIENTED_EDGE('',*,*,#630,.F.);
#819=ORIENTED_EDGE('',*,*,#635,.T.);
#820=ORIENTED_EDGE('',*,*,#636,.T.);
#821=ORIENTED_EDGE('',*,*,#637,.T.);
#822=ORIENTED_EDGE('',*,*,#633,.F.);
#823=ORIENTED_EDGE('',*,*,#638,.T.);
#824=ORIENTED_EDGE('',*,*,#636,.F.);
#825=ORIENTED_EDGE('',*,*,#639,.T.);
#826=ORIENTED_EDGE('',*,*,#640,.T.);
#827=ORIENTED_EDGE('',*,*,#641,.T.);
#828=ORIENTED_EDGE('',*,*,#640,.F.);
#829=ORIENTED_EDGE('',*,*,#642,.T.);
#830=ORIENTED_EDGE('',*,*,#643,.T.);
#831=ORIENTED_EDGE('',*,*,#644,.T.);
#832=ORIENTED_EDGE('',*,*,#645,.T.);
#833=ORIENTED_EDGE('',*,*,#646,.T.);
#834=ORIENTED_EDGE('',*,*,#643,.F.);
#835=ORIENTED_EDGE('',*,*,#647,.T.);
#836=ORIENTED_EDGE('',*,*,#645,.F.);
#837=ORIENTED_EDGE('',*,*,#648,.T.);
#838=ORIENTED_EDGE('',*,*,#649,.T.);
#839=ORIENTED_EDGE('',*,*,#650,.T.);
#840=ORIENTED_EDGE('',*,*,#651,.T.);
#841=ORIENTED_EDGE('',*,*,#652,.T.);
#842=ORIENTED_EDGE('',*,*,#649,.F.);
#843=ORIENTED_EDGE('',*,*,#653,.T.);
#844=ORIENTED_EDGE('',*,*,#654,.T.);
#845=ORIENTED_EDGE('',*,*,#655,.T.);
#846=ORIENTED_EDGE('',*,*,#651,.F.);
#847=ORIENTED_EDGE('',*,*,#656,.T.);
#848=ORIENTED_EDGE('',*,*,#657,.T.);
#849=ORIENTED_EDGE('',*,*,#658,.T.);
#850=ORIENTED_EDGE('',*,*,#654,.F.);
#851=ORIENTED_EDGE('',*,*,#659,.T.);
#852=ORIENTED_EDGE('',*,*,#660,.T.);
#853=ORIENTED_EDGE('',*,*,#661,.T.);
#854=ORIENTED_EDGE('',*,*,#657,.F.);
#855=ORIENTED_EDGE('',*,*,#662,.T.);
#856=ORIENTED_EDGE('',*,*,#663,.T.);
#857=ORIENTED_EDGE('',*,*,#664,.T.);
#858=ORIENTED_EDGE('',*,*,#660,.F.);
#859=ORIENTED_EDGE('',*,*,#665,.T.);
#860=ORIENTED_EDGE('',*,*,#666,.T.);
#861=ORIENTED_EDGE('',*,*,#663,.F.);
#862=ORIENTED_EDGE('',*,*,#667,.T.);
#863=ORIENTED_EDGE('',*,*,#621,.F.);
#864=ORIENTED_EDGE('',*,*,#668,.T.);
#865=ORIENTED_EDGE('',*,*,#642,.F.);
#866=ORIENTED_EDGE('',*,*,#669,.T.);
#867=ORIENTED_EDGE('',*,*,#670,.T.);
#868=ORIENTED_EDGE('',*,*,#671,.T.);
#869=ORIENTED_EDGE('',*,*,#628,.F.);
#870=ORIENTED_EDGE('',*,*,#672,.F.);
#871=ORIENTED_EDGE('',*,*,#673,.T.);
#872=ORIENTED_EDGE('',*,*,#674,.F.);
#873=ORIENTED_EDGE('',*,*,#639,.F.);
#874=ORIENTED_EDGE('',*,*,#638,.F.);
#875=ORIENTED_EDGE('',*,*,#635,.F.);
#876=ORIENTED_EDGE('',*,*,#632,.F.);
#877=ORIENTED_EDGE('',*,*,#675,.T.);
#878=ORIENTED_EDGE('',*,*,#676,.F.);
#879=ORIENTED_EDGE('',*,*,#677,.T.);
#880=ORIENTED_EDGE('',*,*,#669,.F.);
#881=ORIENTED_EDGE('',*,*,#666,.F.);
#882=ORIENTED_EDGE('',*,*,#678,.F.);
#883=ORIENTED_EDGE('',*,*,#679,.T.);
#884=ORIENTED_EDGE('',*,*,#680,.F.);
#885=ORIENTED_EDGE('',*,*,#623,.F.);
#886=ORIENTED_EDGE('',*,*,#681,.T.);
#887=ORIENTED_EDGE('',*,*,#682,.T.);
#888=ORIENTED_EDGE('',*,*,#672,.T.);
#889=ORIENTED_EDGE('',*,*,#622,.F.);
#890=ORIENTED_EDGE('',*,*,#683,.F.);
#891=ORIENTED_EDGE('',*,*,#684,.T.);
#892=ORIENTED_EDGE('',*,*,#685,.F.);
#893=ORIENTED_EDGE('',*,*,#686,.F.);
#894=ORIENTED_EDGE('',*,*,#687,.F.);
#895=ORIENTED_EDGE('',*,*,#688,.T.);
#896=ORIENTED_EDGE('',*,*,#681,.F.);
#897=ORIENTED_EDGE('',*,*,#655,.F.);
#898=ORIENTED_EDGE('',*,*,#689,.T.);
#899=ORIENTED_EDGE('',*,*,#637,.F.);
#900=ORIENTED_EDGE('',*,*,#690,.T.);
#901=ORIENTED_EDGE('',*,*,#658,.F.);
#902=ORIENTED_EDGE('',*,*,#691,.F.);
#903=ORIENTED_EDGE('',*,*,#634,.F.);
#904=ORIENTED_EDGE('',*,*,#689,.F.);
#905=ORIENTED_EDGE('',*,*,#661,.F.);
#906=ORIENTED_EDGE('',*,*,#692,.T.);
#907=ORIENTED_EDGE('',*,*,#631,.F.);
#908=ORIENTED_EDGE('',*,*,#691,.T.);
#909=ORIENTED_EDGE('',*,*,#664,.F.);
#910=ORIENTED_EDGE('',*,*,#668,.F.);
#911=ORIENTED_EDGE('',*,*,#620,.F.);
#912=ORIENTED_EDGE('',*,*,#625,.F.);
#913=ORIENTED_EDGE('',*,*,#627,.F.);
#914=ORIENTED_EDGE('',*,*,#692,.F.);
#915=ORIENTED_EDGE('',*,*,#693,.F.);
#916=ORIENTED_EDGE('',*,*,#694,.T.);
#917=ORIENTED_EDGE('',*,*,#695,.F.);
#918=ORIENTED_EDGE('',*,*,#694,.F.);
#919=ORIENTED_EDGE('',*,*,#696,.F.);
#920=ORIENTED_EDGE('',*,*,#697,.T.);
#921=ORIENTED_EDGE('',*,*,#698,.F.);
#922=ORIENTED_EDGE('',*,*,#697,.F.);
#923=ORIENTED_EDGE('',*,*,#699,.F.);
#924=ORIENTED_EDGE('',*,*,#700,.T.);
#925=ORIENTED_EDGE('',*,*,#701,.T.);
#926=ORIENTED_EDGE('',*,*,#700,.F.);
#927=ORIENTED_EDGE('',*,*,#701,.F.);
#928=ORIENTED_EDGE('',*,*,#693,.T.);
#929=ORIENTED_EDGE('',*,*,#702,.F.);
#930=ORIENTED_EDGE('',*,*,#703,.T.);
#931=ORIENTED_EDGE('',*,*,#704,.T.);
#932=ORIENTED_EDGE('',*,*,#703,.F.);
#933=ORIENTED_EDGE('',*,*,#704,.F.);
#934=ORIENTED_EDGE('',*,*,#696,.T.);
#935=ORIENTED_EDGE('',*,*,#705,.T.);
#936=ORIENTED_EDGE('',*,*,#706,.F.);
#937=ORIENTED_EDGE('',*,*,#707,.T.);
#938=ORIENTED_EDGE('',*,*,#678,.T.);
#939=ORIENTED_EDGE('',*,*,#708,.T.);
#940=ORIENTED_EDGE('',*,*,#709,.T.);
#941=ORIENTED_EDGE('',*,*,#710,.T.);
#942=ORIENTED_EDGE('',*,*,#711,.T.);
#943=ORIENTED_EDGE('',*,*,#653,.F.);
#944=ORIENTED_EDGE('',*,*,#712,.F.);
#945=ORIENTED_EDGE('',*,*,#713,.T.);
#946=ORIENTED_EDGE('',*,*,#709,.F.);
#947=ORIENTED_EDGE('',*,*,#714,.T.);
#948=ORIENTED_EDGE('',*,*,#662,.F.);
#949=ORIENTED_EDGE('',*,*,#659,.F.);
#950=ORIENTED_EDGE('',*,*,#656,.F.);
#951=ORIENTED_EDGE('',*,*,#715,.T.);
#952=ORIENTED_EDGE('',*,*,#674,.T.);
#953=ORIENTED_EDGE('',*,*,#716,.T.);
#954=ORIENTED_EDGE('',*,*,#717,.T.);
#955=ORIENTED_EDGE('',*,*,#718,.T.);
#956=ORIENTED_EDGE('',*,*,#676,.T.);
#957=ORIENTED_EDGE('',*,*,#719,.T.);
#958=ORIENTED_EDGE('',*,*,#720,.F.);
#959=ORIENTED_EDGE('',*,*,#721,.T.);
#960=ORIENTED_EDGE('',*,*,#706,.T.);
#961=ORIENTED_EDGE('',*,*,#722,.F.);
#962=ORIENTED_EDGE('',*,*,#723,.F.);
#963=ORIENTED_EDGE('',*,*,#711,.F.);
#964=ORIENTED_EDGE('',*,*,#724,.T.);
#965=ORIENTED_EDGE('',*,*,#723,.T.);
#966=ORIENTED_EDGE('',*,*,#725,.F.);
#967=ORIENTED_EDGE('',*,*,#725,.T.);
#968=ORIENTED_EDGE('',*,*,#722,.T.);
#969=ORIENTED_EDGE('',*,*,#705,.F.);
#970=ORIENTED_EDGE('',*,*,#665,.F.);
#971=ORIENTED_EDGE('',*,*,#714,.F.);
#972=ORIENTED_EDGE('',*,*,#708,.F.);
#973=ORIENTED_EDGE('',*,*,#699,.T.);
#974=ORIENTED_EDGE('',*,*,#726,.T.);
#975=ORIENTED_EDGE('',*,*,#720,.T.);
#976=ORIENTED_EDGE('',*,*,#727,.F.);
#977=ORIENTED_EDGE('',*,*,#717,.F.);
#978=ORIENTED_EDGE('',*,*,#629,.F.);
#979=ORIENTED_EDGE('',*,*,#715,.F.);
#980=ORIENTED_EDGE('',*,*,#727,.T.);
#981=ORIENTED_EDGE('',*,*,#719,.F.);
#982=ORIENTED_EDGE('',*,*,#675,.F.);
#983=ORIENTED_EDGE('',*,*,#702,.T.);
#984=ORIENTED_EDGE('',*,*,#728,.T.);
#985=ORIENTED_EDGE('',*,*,#729,.T.);
#986=ORIENTED_EDGE('',*,*,#730,.T.);
#987=ORIENTED_EDGE('',*,*,#685,.T.);
#988=ORIENTED_EDGE('',*,*,#731,.T.);
#989=ORIENTED_EDGE('',*,*,#686,.T.);
#990=ORIENTED_EDGE('',*,*,#730,.F.);
#991=ORIENTED_EDGE('',*,*,#732,.T.);
#992=ORIENTED_EDGE('',*,*,#733,.T.);
#993=ORIENTED_EDGE('',*,*,#687,.T.);
#994=ORIENTED_EDGE('',*,*,#731,.F.);
#995=ORIENTED_EDGE('',*,*,#734,.T.);
#996=ORIENTED_EDGE('',*,*,#732,.F.);
#997=ORIENTED_EDGE('',*,*,#735,.T.);
#998=ORIENTED_EDGE('',*,*,#736,.F.);
#999=ORIENTED_EDGE('',*,*,#737,.F.);
#1000=ORIENTED_EDGE('',*,*,#729,.F.);
#1001=ORIENTED_EDGE('',*,*,#738,.T.);
#1002=ORIENTED_EDGE('',*,*,#739,.F.);
#1003=ORIENTED_EDGE('',*,*,#735,.F.);
#1004=ORIENTED_EDGE('',*,*,#667,.F.);
#1005=ORIENTED_EDGE('',*,*,#680,.T.);
#1006=ORIENTED_EDGE('',*,*,#740,.T.);
#1007=ORIENTED_EDGE('',*,*,#683,.T.);
#1008=ORIENTED_EDGE('',*,*,#733,.F.);
#1009=ORIENTED_EDGE('',*,*,#741,.F.);
#1010=ORIENTED_EDGE('',*,*,#742,.F.);
#1011=ORIENTED_EDGE('',*,*,#743,.F.);
#1012=ORIENTED_EDGE('',*,*,#744,.F.);
#1013=ORIENTED_EDGE('',*,*,#745,.F.);
#1014=ORIENTED_EDGE('',*,*,#746,.F.);
#1015=ORIENTED_EDGE('',*,*,#747,.F.);
#1016=ORIENTED_EDGE('',*,*,#748,.F.);
#1017=ORIENTED_EDGE('',*,*,#738,.F.);
#1018=ORIENTED_EDGE('',*,*,#728,.F.);
#1019=ORIENTED_EDGE('',*,*,#684,.F.);
#1020=ORIENTED_EDGE('',*,*,#740,.F.);
#1021=ORIENTED_EDGE('',*,*,#679,.F.);
#1022=ORIENTED_EDGE('',*,*,#707,.F.);
#1023=ORIENTED_EDGE('',*,*,#721,.F.);
#1024=ORIENTED_EDGE('',*,*,#724,.F.);
#1025=ORIENTED_EDGE('',*,*,#710,.F.);
#1026=ORIENTED_EDGE('',*,*,#713,.F.);
#1027=ORIENTED_EDGE('',*,*,#749,.F.);
#1028=ORIENTED_EDGE('',*,*,#750,.F.);
#1029=ORIENTED_EDGE('',*,*,#670,.F.);
#1030=ORIENTED_EDGE('',*,*,#677,.F.);
#1031=ORIENTED_EDGE('',*,*,#718,.F.);
#1032=ORIENTED_EDGE('',*,*,#726,.F.);
#1033=ORIENTED_EDGE('',*,*,#716,.F.);
#1034=ORIENTED_EDGE('',*,*,#673,.F.);
#1035=ORIENTED_EDGE('',*,*,#682,.F.);
#1036=ORIENTED_EDGE('',*,*,#688,.F.);
#1037=ORIENTED_EDGE('',*,*,#695,.T.);
#1038=ORIENTED_EDGE('',*,*,#698,.T.);
#1039=ORIENTED_EDGE('',*,*,#647,.F.);
#1040=ORIENTED_EDGE('',*,*,#671,.F.);
#1041=ORIENTED_EDGE('',*,*,#750,.T.);
#1042=ORIENTED_EDGE('',*,*,#751,.F.);
#1043=ORIENTED_EDGE('',*,*,#648,.F.);
#1044=ORIENTED_EDGE('',*,*,#751,.T.);
#1045=ORIENTED_EDGE('',*,*,#749,.T.);
#1046=ORIENTED_EDGE('',*,*,#712,.T.);
#1047=ORIENTED_EDGE('',*,*,#734,.F.);
#1048=ORIENTED_EDGE('',*,*,#737,.T.);
#1049=ORIENTED_EDGE('',*,*,#752,.F.);
#1050=ORIENTED_EDGE('',*,*,#741,.T.);
#1051=ORIENTED_EDGE('',*,*,#744,.T.);
#1052=ORIENTED_EDGE('',*,*,#753,.T.);
#1053=ORIENTED_EDGE('',*,*,#754,.T.);
#1054=ORIENTED_EDGE('',*,*,#755,.F.);
#1055=ORIENTED_EDGE('',*,*,#756,.T.);
#1056=ORIENTED_EDGE('',*,*,#757,.T.);
#1057=ORIENTED_EDGE('',*,*,#758,.F.);
#1058=ORIENTED_EDGE('',*,*,#742,.T.);
#1059=ORIENTED_EDGE('',*,*,#752,.T.);
#1060=ORIENTED_EDGE('',*,*,#759,.T.);
#1061=ORIENTED_EDGE('',*,*,#760,.T.);
#1062=ORIENTED_EDGE('',*,*,#743,.T.);
#1063=ORIENTED_EDGE('',*,*,#760,.F.);
#1064=ORIENTED_EDGE('',*,*,#761,.F.);
#1065=ORIENTED_EDGE('',*,*,#762,.F.);
#1066=ORIENTED_EDGE('',*,*,#747,.T.);
#1067=ORIENTED_EDGE('',*,*,#763,.T.);
#1068=ORIENTED_EDGE('',*,*,#764,.T.);
#1069=ORIENTED_EDGE('',*,*,#753,.F.);
#1070=ORIENTED_EDGE('',*,*,#652,.F.);
#1071=ORIENTED_EDGE('',*,*,#690,.F.);
#1072=ORIENTED_EDGE('',*,*,#641,.F.);
#1073=ORIENTED_EDGE('',*,*,#644,.F.);
#1074=ORIENTED_EDGE('',*,*,#646,.F.);
#1075=ORIENTED_EDGE('',*,*,#650,.F.);
#1076=ORIENTED_EDGE('',*,*,#765,.T.);
#1077=ORIENTED_EDGE('',*,*,#766,.T.);
#1078=ORIENTED_EDGE('',*,*,#767,.T.);
#1079=ORIENTED_EDGE('',*,*,#768,.T.);
#1080=ORIENTED_EDGE('',*,*,#769,.T.);
#1081=ORIENTED_EDGE('',*,*,#770,.T.);
#1082=ORIENTED_EDGE('',*,*,#771,.T.);
#1083=ORIENTED_EDGE('',*,*,#772,.T.);
#1084=ORIENTED_EDGE('',*,*,#770,.F.);
#1085=ORIENTED_EDGE('',*,*,#773,.T.);
#1086=ORIENTED_EDGE('',*,*,#774,.F.);
#1087=ORIENTED_EDGE('',*,*,#775,.F.);
#1088=ORIENTED_EDGE('',*,*,#771,.F.);
#1089=ORIENTED_EDGE('',*,*,#775,.T.);
#1090=ORIENTED_EDGE('',*,*,#776,.F.);
#1091=ORIENTED_EDGE('',*,*,#777,.F.);
#1092=ORIENTED_EDGE('',*,*,#772,.F.);
#1093=ORIENTED_EDGE('',*,*,#777,.T.);
#1094=ORIENTED_EDGE('',*,*,#778,.F.);
#1095=ORIENTED_EDGE('',*,*,#779,.F.);
#1096=ORIENTED_EDGE('',*,*,#748,.T.);
#1097=ORIENTED_EDGE('',*,*,#762,.T.);
#1098=ORIENTED_EDGE('',*,*,#780,.T.);
#1099=ORIENTED_EDGE('',*,*,#739,.T.);
#1100=ORIENTED_EDGE('',*,*,#736,.T.);
#1101=ORIENTED_EDGE('',*,*,#780,.F.);
#1102=ORIENTED_EDGE('',*,*,#761,.T.);
#1103=ORIENTED_EDGE('',*,*,#759,.F.);
#1104=ORIENTED_EDGE('',*,*,#781,.T.);
#1105=ORIENTED_EDGE('',*,*,#782,.T.);
#1106=ORIENTED_EDGE('',*,*,#783,.T.);
#1107=ORIENTED_EDGE('',*,*,#755,.T.);
#1108=ORIENTED_EDGE('',*,*,#783,.F.);
#1109=ORIENTED_EDGE('',*,*,#784,.F.);
#1110=ORIENTED_EDGE('',*,*,#785,.T.);
#1111=ORIENTED_EDGE('',*,*,#756,.F.);
#1112=ORIENTED_EDGE('',*,*,#745,.T.);
#1113=ORIENTED_EDGE('',*,*,#758,.T.);
#1114=ORIENTED_EDGE('',*,*,#786,.T.);
#1115=ORIENTED_EDGE('',*,*,#787,.F.);
#1116=ORIENTED_EDGE('',*,*,#746,.T.);
#1117=ORIENTED_EDGE('',*,*,#787,.T.);
#1118=ORIENTED_EDGE('',*,*,#788,.T.);
#1119=ORIENTED_EDGE('',*,*,#784,.T.);
#1120=ORIENTED_EDGE('',*,*,#782,.F.);
#1121=ORIENTED_EDGE('',*,*,#789,.T.);
#1122=ORIENTED_EDGE('',*,*,#763,.F.);
#1123=ORIENTED_EDGE('',*,*,#785,.F.);
#1124=ORIENTED_EDGE('',*,*,#788,.F.);
#1125=ORIENTED_EDGE('',*,*,#786,.F.);
#1126=ORIENTED_EDGE('',*,*,#757,.F.);
#1127=ORIENTED_EDGE('',*,*,#790,.T.);
#1128=ORIENTED_EDGE('',*,*,#778,.T.);
#1129=ORIENTED_EDGE('',*,*,#776,.T.);
#1130=ORIENTED_EDGE('',*,*,#774,.T.);
#1131=ORIENTED_EDGE('',*,*,#791,.T.);
#1132=ORIENTED_EDGE('',*,*,#792,.T.);
#1133=ORIENTED_EDGE('',*,*,#793,.T.);
#1134=ORIENTED_EDGE('',*,*,#794,.T.);
#1135=ORIENTED_EDGE('',*,*,#768,.F.);
#1136=ORIENTED_EDGE('',*,*,#795,.T.);
#1137=ORIENTED_EDGE('',*,*,#792,.F.);
#1138=ORIENTED_EDGE('',*,*,#796,.F.);
#1139=ORIENTED_EDGE('',*,*,#767,.F.);
#1140=ORIENTED_EDGE('',*,*,#797,.T.);
#1141=ORIENTED_EDGE('',*,*,#793,.F.);
#1142=ORIENTED_EDGE('',*,*,#795,.F.);
#1143=ORIENTED_EDGE('',*,*,#766,.F.);
#1144=ORIENTED_EDGE('',*,*,#798,.T.);
#1145=ORIENTED_EDGE('',*,*,#794,.F.);
#1146=ORIENTED_EDGE('',*,*,#797,.F.);
#1147=ORIENTED_EDGE('',*,*,#781,.F.);
#1148=ORIENTED_EDGE('',*,*,#754,.F.);
#1149=ORIENTED_EDGE('',*,*,#764,.F.);
#1150=ORIENTED_EDGE('',*,*,#789,.F.);
#1151=ORIENTED_EDGE('',*,*,#790,.F.);
#1152=ORIENTED_EDGE('',*,*,#798,.F.);
#1153=ORIENTED_EDGE('',*,*,#765,.F.);
#1154=ORIENTED_EDGE('',*,*,#779,.T.);
#1155=ORIENTED_EDGE('',*,*,#769,.F.);
#1156=ORIENTED_EDGE('',*,*,#796,.T.);
#1157=ORIENTED_EDGE('',*,*,#791,.F.);
#1158=ORIENTED_EDGE('',*,*,#773,.F.);
#1159=PLANE('',#1269);
#1160=PLANE('',#1273);
#1161=PLANE('',#1277);
#1162=PLANE('',#1281);
#1163=PLANE('',#1285);
#1164=PLANE('',#1289);
#1165=PLANE('',#1293);
#1166=PLANE('',#1297);
#1167=PLANE('',#1303);
#1168=PLANE('',#1304);
#1169=PLANE('',#1305);
#1170=PLANE('',#1308);
#1171=PLANE('',#1312);
#1172=PLANE('',#1314);
#1173=PLANE('',#1324);
#1174=PLANE('',#1328);
#1175=PLANE('',#1335);
#1176=PLANE('',#1345);
#1177=PLANE('',#1346);
#1178=PLANE('',#1350);
#1179=PLANE('',#1358);
#1180=PLANE('',#1363);
#1181=PLANE('',#1365);
#1182=PLANE('',#1369);
#1183=PLANE('',#1373);
#1184=PLANE('',#1375);
#1185=PLANE('',#1382);
#1186=PLANE('',#1388);
#1187=PLANE('',#1389);
#1188=PLANE('',#1390);
#1189=PLANE('',#1391);
#1190=PLANE('',#1392);
#1191=PLANE('',#1396);
#1192=PLANE('',#1398);
#1193=PLANE('',#1399);
#1194=PLANE('',#1400);
#1195=ADVANCED_FACE('',(#123),#1159,.T.);
#1196=ADVANCED_FACE('',(#124),#115,.T.);
#1197=ADVANCED_FACE('',(#125),#1160,.T.);
#1198=ADVANCED_FACE('',(#126),#116,.F.);
#1199=ADVANCED_FACE('',(#127),#1161,.T.);
#1200=ADVANCED_FACE('',(#128),#117,.T.);
#1201=ADVANCED_FACE('',(#129),#1162,.T.);
#1202=ADVANCED_FACE('',(#130),#118,.T.);
#1203=ADVANCED_FACE('',(#131),#1163,.T.);
#1204=ADVANCED_FACE('',(#132),#119,.T.);
#1205=ADVANCED_FACE('',(#133),#1164,.T.);
#1206=ADVANCED_FACE('',(#134),#120,.T.);
#1207=ADVANCED_FACE('',(#135),#1165,.T.);
#1208=ADVANCED_FACE('',(#136),#121,.F.);
#1209=ADVANCED_FACE('',(#137),#1166,.T.);
#1210=ADVANCED_FACE('',(#138),#122,.T.);
#1211=ADVANCED_FACE('',(#139),#31,.T.);
#1212=ADVANCED_FACE('',(#140),#1167,.T.);
#1213=ADVANCED_FACE('',(#141),#1168,.T.);
#1214=ADVANCED_FACE('',(#142),#1169,.T.);
#1215=ADVANCED_FACE('',(#143),#32,.T.);
#1216=ADVANCED_FACE('',(#144),#1170,.T.);
#1217=ADVANCED_FACE('',(#145),#33,.T.);
#1218=ADVANCED_FACE('',(#146),#1171,.T.);
#1219=ADVANCED_FACE('',(#147),#34,.F.);
#1220=ADVANCED_FACE('',(#148),#1172,.T.);
#1221=ADVANCED_FACE('',(#149),#35,.F.);
#1222=ADVANCED_FACE('',(#150),#36,.F.);
#1223=ADVANCED_FACE('',(#151),#37,.F.);
#1224=ADVANCED_FACE('',(#152,#23),#1173,.T.);
#1225=ADVANCED_FACE('',(#153),#38,.F.);
#1226=ADVANCED_FACE('',(#154,#24),#1174,.T.);
#1227=ADVANCED_FACE('',(#155),#39,.F.);
#1228=ADVANCED_FACE('',(#156),#40,.F.);
#1229=ADVANCED_FACE('',(#157),#1175,.T.);
#1230=ADVANCED_FACE('',(#158),#41,.F.);
#1231=ADVANCED_FACE('',(#159),#42,.F.);
#1232=ADVANCED_FACE('',(#160),#43,.T.);
#1233=ADVANCED_FACE('',(#161),#1176,.T.);
#1234=ADVANCED_FACE('',(#162,#25),#1177,.F.);
#1235=ADVANCED_FACE('',(#163),#44,.T.);
#1236=ADVANCED_FACE('',(#164,#26),#1178,.F.);
#1237=ADVANCED_FACE('',(#165),#19,.T.);
#1238=ADVANCED_FACE('',(#166),#45,.T.);
#1239=ADVANCED_FACE('',(#167),#20,.T.);
#1240=ADVANCED_FACE('',(#168),#1179,.F.);
#1241=ADVANCED_FACE('',(#169),#46,.F.);
#1242=ADVANCED_FACE('',(#170),#47,.T.);
#1243=ADVANCED_FACE('',(#171,#27,#28),#1180,.F.);
#1244=ADVANCED_FACE('',(#172),#1181,.T.);
#1245=ADVANCED_FACE('',(#173),#48,.T.);
#1246=ADVANCED_FACE('',(#174),#49,.F.);
#1247=ADVANCED_FACE('',(#175),#1182,.T.);
#1248=ADVANCED_FACE('',(#176),#21,.T.);
#1249=ADVANCED_FACE('',(#177),#1183,.F.);
#1250=ADVANCED_FACE('',(#178,#29),#1184,.T.);
#1251=ADVANCED_FACE('',(#179),#50,.F.);
#1252=ADVANCED_FACE('',(#180),#1185,.T.);
#1253=ADVANCED_FACE('',(#181),#51,.F.);
#1254=ADVANCED_FACE('',(#182),#22,.T.);
#1255=ADVANCED_FACE('',(#183),#52,.T.);
#1256=ADVANCED_FACE('',(#184),#1186,.T.);
#1257=ADVANCED_FACE('',(#185),#1187,.F.);
#1258=ADVANCED_FACE('',(#186),#1188,.T.);
#1259=ADVANCED_FACE('',(#187),#1189,.T.);
#1260=ADVANCED_FACE('',(#188,#30),#1190,.F.);
#1261=ADVANCED_FACE('',(#189),#53,.F.);
#1262=ADVANCED_FACE('',(#190),#1191,.T.);
#1263=ADVANCED_FACE('',(#191),#54,.F.);
#1264=ADVANCED_FACE('',(#192),#1192,.T.);
#1265=ADVANCED_FACE('',(#193),#1193,.T.);
#1266=ADVANCED_FACE('',(#194),#1194,.T.);
#1267=CLOSED_SHELL('',(#1195,#1196,#1197,#1198,#1199,#1200,#1201,#1202,
#1203,#1204,#1205,#1206,#1207,#1208,#1209,#1210,#1211,#1212,#1213,#1214,
#1215,#1216,#1217,#1218,#1219,#1220,#1221,#1222,#1223,#1224,#1225,#1226,
#1227,#1228,#1229,#1230,#1231,#1232,#1233,#1234,#1235,#1236,#1237,#1238,
#1239,#1240,#1241,#1242,#1243,#1244,#1245,#1246,#1247,#1248,#1249,#1250,
#1251,#1252,#1253,#1254,#1255,#1256,#1257,#1258,#1259,#1260,#1261,#1262,
#1263,#1264,#1265,#1266));
#1268=AXIS2_PLACEMENT_3D('',#1783,#1401,#1402);
#1269=AXIS2_PLACEMENT_3D('',#1784,#1403,#1404);
#1270=AXIS2_PLACEMENT_3D('',#1793,#1409,#1410);
#1271=AXIS2_PLACEMENT_3D('',#1795,#1411,#1412);
#1272=AXIS2_PLACEMENT_3D('',#1798,#1414,#1415);
#1273=AXIS2_PLACEMENT_3D('',#1799,#1416,#1417);
#1274=AXIS2_PLACEMENT_3D('',#1807,#1422,#1423);
#1275=AXIS2_PLACEMENT_3D('',#1811,#1425,#1426);
#1276=AXIS2_PLACEMENT_3D('',#1812,#1427,#1428);
#1277=AXIS2_PLACEMENT_3D('',#1813,#1429,#1430);
#1278=AXIS2_PLACEMENT_3D('',#1819,#1434,#1435);
#1279=AXIS2_PLACEMENT_3D('',#1823,#1437,#1438);
#1280=AXIS2_PLACEMENT_3D('',#1824,#1439,#1440);
#1281=AXIS2_PLACEMENT_3D('',#1825,#1441,#1442);
#1282=AXIS2_PLACEMENT_3D('',#1831,#1446,#1447);
#1283=AXIS2_PLACEMENT_3D('',#1833,#1448,#1449);
#1284=AXIS2_PLACEMENT_3D('',#1836,#1451,#1452);
#1285=AXIS2_PLACEMENT_3D('',#1837,#1453,#1454);
#1286=AXIS2_PLACEMENT_3D('',#1843,#1458,#1459);
#1287=AXIS2_PLACEMENT_3D('',#1845,#1460,#1461);
#1288=AXIS2_PLACEMENT_3D('',#1848,#1463,#1464);
#1289=AXIS2_PLACEMENT_3D('',#1849,#1465,#1466);
#1290=AXIS2_PLACEMENT_3D('',#1855,#1470,#1471);
#1291=AXIS2_PLACEMENT_3D('',#1859,#1473,#1474);
#1292=AXIS2_PLACEMENT_3D('',#1860,#1475,#1476);
#1293=AXIS2_PLACEMENT_3D('',#1861,#1477,#1478);
#1294=AXIS2_PLACEMENT_3D('',#1867,#1482,#1483);
#1295=AXIS2_PLACEMENT_3D('',#1871,#1485,#1486);
#1296=AXIS2_PLACEMENT_3D('',#1872,#1487,#1488);
#1297=AXIS2_PLACEMENT_3D('',#1873,#1489,#1490);
#1298=AXIS2_PLACEMENT_3D('',#1881,#1495,#1496);
#1299=AXIS2_PLACEMENT_3D('',#1882,#1497,#1498);
#1300=AXIS2_PLACEMENT_3D('',#1883,#1499,#1500);
#1301=AXIS2_PLACEMENT_3D('',#1884,#1501,#1502);
#1302=AXIS2_PLACEMENT_3D('',#1888,#1504,#1505);
#1303=AXIS2_PLACEMENT_3D('',#1890,#1507,#1508);
#1304=AXIS2_PLACEMENT_3D('',#1896,#1512,#1513);
#1305=AXIS2_PLACEMENT_3D('',#1902,#1517,#1518);
#1306=AXIS2_PLACEMENT_3D('',#1908,#1522,#1523);
#1307=AXIS2_PLACEMENT_3D('',#1911,#1525,#1526);
#1308=AXIS2_PLACEMENT_3D('',#1912,#1527,#1528);
#1309=AXIS2_PLACEMENT_3D('',#1918,#1531,#1532);
#1310=AXIS2_PLACEMENT_3D('',#1922,#1534,#1535);
#1311=AXIS2_PLACEMENT_3D('',#1924,#1537,#1538);
#1312=AXIS2_PLACEMENT_3D('',#1927,#1541,#1542);
#1313=AXIS2_PLACEMENT_3D('',#1929,#1544,#1545);
#1314=AXIS2_PLACEMENT_3D('',#1931,#1547,#1548);
#1315=AXIS2_PLACEMENT_3D('',#1932,#1549,#1550);
#1316=AXIS2_PLACEMENT_3D('',#1934,#1551,#1552);
#1317=AXIS2_PLACEMENT_3D('',#1937,#1554,#1555);
#1318=AXIS2_PLACEMENT_3D('',#1938,#1556,#1557);
#1319=AXIS2_PLACEMENT_3D('',#1940,#1558,#1559);
#1320=AXIS2_PLACEMENT_3D('',#1943,#1561,#1562);
#1321=AXIS2_PLACEMENT_3D('',#1944,#1563,#1564);
#1322=AXIS2_PLACEMENT_3D('',#1946,#1565,#1566);
#1323=AXIS2_PLACEMENT_3D('',#1949,#1568,#1569);
#1324=AXIS2_PLACEMENT_3D('',#1950,#1570,#1571);
#1325=AXIS2_PLACEMENT_3D('',#1951,#1572,#1573);
#1326=AXIS2_PLACEMENT_3D('',#1953,#1574,#1575);
#1327=AXIS2_PLACEMENT_3D('',#1956,#1577,#1578);
#1328=AXIS2_PLACEMENT_3D('',#1957,#1579,#1580);
#1329=AXIS2_PLACEMENT_3D('',#1958,#1581,#1582);
#1330=AXIS2_PLACEMENT_3D('',#1960,#1583,#1584);
#1331=AXIS2_PLACEMENT_3D('',#1963,#1586,#1587);
#1332=AXIS2_PLACEMENT_3D('',#1964,#1588,#1589);
#1333=AXIS2_PLACEMENT_3D('',#1967,#1590,#1591);
#1334=AXIS2_PLACEMENT_3D('',#1971,#1593,#1594);
#1335=AXIS2_PLACEMENT_3D('',#1973,#1596,#1597);
#1336=AXIS2_PLACEMENT_3D('',#1978,#1601,#1602);
#1337=AXIS2_PLACEMENT_3D('',#1980,#1603,#1604);
#1338=AXIS2_PLACEMENT_3D('',#1982,#1605,#1606);
#1339=AXIS2_PLACEMENT_3D('',#1984,#1608,#1609);
#1340=AXIS2_PLACEMENT_3D('',#1986,#1610,#1611);
#1341=AXIS2_PLACEMENT_3D('',#1988,#1612,#1613);
#1342=AXIS2_PLACEMENT_3D('',#1990,#1615,#1616);
#1343=AXIS2_PLACEMENT_3D('',#1992,#1617,#1618);
#1344=AXIS2_PLACEMENT_3D('',#1994,#1619,#1620);
#1345=AXIS2_PLACEMENT_3D('',#1996,#1622,#1623);
#1346=AXIS2_PLACEMENT_3D('',#1999,#1626,#1627);
#1347=AXIS2_PLACEMENT_3D('',#2000,#1628,#1629);
#1348=AXIS2_PLACEMENT_3D('',#2001,#1630,#1631);
#1349=AXIS2_PLACEMENT_3D('',#2002,#1632,#1633);
#1350=AXIS2_PLACEMENT_3D('',#2003,#1634,#1635);
#1351=AXIS2_PLACEMENT_3D('',#2004,#1636,#1637);
#1352=AXIS2_PLACEMENT_3D('',#2017,#1638,#1639);
#1353=AXIS2_PLACEMENT_3D('',#2018,#1640,#1641);
#1354=AXIS2_PLACEMENT_3D('',#2019,#1642,#1643);
#1355=AXIS2_PLACEMENT_3D('',#2021,#1644,#1645);
#1356=AXIS2_PLACEMENT_3D('',#2023,#1647,#1648);
#1357=AXIS2_PLACEMENT_3D('',#2035,#1649,#1650);
#1358=AXIS2_PLACEMENT_3D('',#2036,#1651,#1652);
#1359=AXIS2_PLACEMENT_3D('',#2042,#1656,#1657);
#1360=AXIS2_PLACEMENT_3D('',#2045,#1659,#1660);
#1361=AXIS2_PLACEMENT_3D('',#2046,#1661,#1662);
#1362=AXIS2_PLACEMENT_3D('',#2047,#1663,#1664);
#1363=AXIS2_PLACEMENT_3D('',#2048,#1665,#1666);
#1364=AXIS2_PLACEMENT_3D('',#2083,#1673,#1674);
#1365=AXIS2_PLACEMENT_3D('',#2085,#1676,#1677);
#1366=AXIS2_PLACEMENT_3D('',#2087,#1679,#1680);
#1367=AXIS2_PLACEMENT_3D('',#2088,#1681,#1682);
#1368=AXIS2_PLACEMENT_3D('',#2089,#1683,#1684);
#1369=AXIS2_PLACEMENT_3D('',#2090,#1685,#1686);
#1370=AXIS2_PLACEMENT_3D('',#2102,#1693,#1694);
#1371=AXIS2_PLACEMENT_3D('',#2104,#1695,#1696);
#1372=AXIS2_PLACEMENT_3D('',#2105,#1697,#1698);
#1373=AXIS2_PLACEMENT_3D('',#2106,#1699,#1700);
#1374=AXIS2_PLACEMENT_3D('',#2109,#1702,#1703);
#1375=AXIS2_PLACEMENT_3D('',#2113,#1706,#1707);
#1376=AXIS2_PLACEMENT_3D('',#2118,#1709,#1710);
#1377=AXIS2_PLACEMENT_3D('',#2122,#1712,#1713);
#1378=AXIS2_PLACEMENT_3D('',#2126,#1715,#1716);
#1379=AXIS2_PLACEMENT_3D('',#2129,#1718,#1719);
#1380=AXIS2_PLACEMENT_3D('',#2130,#1720,#1721);
#1381=AXIS2_PLACEMENT_3D('',#2134,#1723,#1724);
#1382=AXIS2_PLACEMENT_3D('',#2136,#1726,#1727);
#1383=AXIS2_PLACEMENT_3D('',#2140,#1730,#1731);
#1384=AXIS2_PLACEMENT_3D('',#2142,#1732,#1733);
#1385=AXIS2_PLACEMENT_3D('',#2144,#1735,#1736);
#1386=AXIS2_PLACEMENT_3D('',#2145,#1737,#1738);
#1387=AXIS2_PLACEMENT_3D('',#2146,#1739,#1740);
#1388=AXIS2_PLACEMENT_3D('',#2147,#1741,#1742);
#1389=AXIS2_PLACEMENT_3D('',#2153,#1746,#1747);
#1390=AXIS2_PLACEMENT_3D('',#2157,#1750,#1751);
#1391=AXIS2_PLACEMENT_3D('',#2161,#1754,#1755);
#1392=AXIS2_PLACEMENT_3D('',#2164,#1758,#1759);
#1393=AXIS2_PLACEMENT_3D('',#2170,#1762,#1763);
#1394=AXIS2_PLACEMENT_3D('',#2173,#1765,#1766);
#1395=AXIS2_PLACEMENT_3D('',#2174,#1767,#1768);
#1396=AXIS2_PLACEMENT_3D('',#2177,#1771,#1772);
#1397=AXIS2_PLACEMENT_3D('',#2179,#1774,#1775);
#1398=AXIS2_PLACEMENT_3D('',#2181,#1777,#1778);
#1399=AXIS2_PLACEMENT_3D('',#2182,#1779,#1780);
#1400=AXIS2_PLACEMENT_3D('',#2183,#1781,#1782);
#1401=DIRECTION('axis',(0.,0.,1.));
#1402=DIRECTION('refdir',(1.,0.,0.));
#1403=DIRECTION('center_axis',(0.,0.707106781186549,0.707106781186546));
#1404=DIRECTION('ref_axis',(1.,0.,0.));
#1405=DIRECTION('',(0.,-0.707106781186546,0.707106781186549));
#1406=DIRECTION('',(1.,0.,0.));
#1407=DIRECTION('',(0.,0.707106781186546,-0.707106781186549));
#1408=DIRECTION('',(-1.,0.,0.));
#1409=DIRECTION('center_axis',(0.,0.,-1.));
#1410=DIRECTION('ref_axis',(-0.707106781186547,0.707106781186547,0.));
#1411=DIRECTION('center_axis',(0.,0.,1.));
#1412=DIRECTION('ref_axis',(-0.707106781186547,0.707106781186547,0.));
#1413=DIRECTION('',(0.707106781186552,0.,0.707106781186543));
#1414=DIRECTION('center_axis',(0.,0.,-1.));
#1415=DIRECTION('ref_axis',(-0.707106781186548,0.707106781186548,0.));
#1416=DIRECTION('center_axis',(-0.707106781186543,0.,0.707106781186552));
#1417=DIRECTION('ref_axis',(0.707106781186552,0.,0.707106781186543));
#1418=DIRECTION('',(0.707106781186552,0.,0.707106781186543));
#1419=DIRECTION('',(0.,1.,0.));
#1420=DIRECTION('',(0.,-1.,0.));
#1421=DIRECTION('',(0.,-1.,0.));
#1422=DIRECTION('center_axis',(-1.,0.,0.));
#1423=DIRECTION('ref_axis',(0.,-0.382683432365089,-0.923879532511287));
#1424=DIRECTION('',(0.707106781186551,0.499999999999994,0.500000000000001));
#1425=DIRECTION('center_axis',(1.,0.,0.));
#1426=DIRECTION('ref_axis',(0.,-0.382683432365089,-0.923879532511287));
#1427=DIRECTION('center_axis',(-1.,0.,0.));
#1428=DIRECTION('ref_axis',(0.,-0.382683432365089,-0.923879532511287));
#1429=DIRECTION('center_axis',(-0.707106781186543,0.500000000000003,0.500000000000003));
#1430=DIRECTION('ref_axis',(0.577350269189631,0.,0.816496580927722));
#1431=DIRECTION('',(0.707106781186548,0.500000000000005,0.499999999999995));
#1432=DIRECTION('',(0.,0.707106781186547,-0.707106781186548));
#1433=DIRECTION('',(0.,-0.707106781186547,0.707106781186548));
#1434=DIRECTION('center_axis',(1.,0.,0.));
#1435=DIRECTION('ref_axis',(0.,0.382683432365089,0.923879532511287));
#1436=DIRECTION('',(0.707106781186551,0.,0.707106781186544));
#1437=DIRECTION('center_axis',(-1.,0.,0.));
#1438=DIRECTION('ref_axis',(0.,0.382683432365089,0.923879532511287));
#1439=DIRECTION('center_axis',(1.,0.,0.));
#1440=DIRECTION('ref_axis',(0.,0.382683432365089,0.923879532511287));
#1441=DIRECTION('center_axis',(-0.707106781186543,0.,0.707106781186552));
#1442=DIRECTION('ref_axis',(0.707106781186552,0.,0.707106781186543));
#1443=DIRECTION('',(0.,-1.,0.));
#1444=DIRECTION('',(0.707106781186552,0.,0.707106781186543));
#1445=DIRECTION('',(0.,1.,0.));
#1446=DIRECTION('center_axis',(0.,0.,-1.));
#1447=DIRECTION('ref_axis',(-0.707106781186547,-0.707106781186547,0.));
#1448=DIRECTION('center_axis',(0.,0.,1.));
#1449=DIRECTION('ref_axis',(-0.707106781186547,-0.707106781186547,0.));
#1450=DIRECTION('',(0.,0.707106781186552,0.707106781186543));
#1451=DIRECTION('center_axis',(0.,0.,-1.));
#1452=DIRECTION('ref_axis',(-0.707106781186548,-0.707106781186548,0.));
#1453=DIRECTION('center_axis',(0.,-0.707106781186543,0.707106781186552));
#1454=DIRECTION('ref_axis',(1.,0.,0.));
#1455=DIRECTION('',(0.,0.707106781186552,0.707106781186543));
#1456=DIRECTION('',(-1.,0.,0.));
#1457=DIRECTION('',(1.,0.,0.));
#1458=DIRECTION('center_axis',(0.,0.,-1.));
#1459=DIRECTION('ref_axis',(0.707106781186547,-0.707106781186547,0.));
#1460=DIRECTION('center_axis',(0.,0.,1.));
#1461=DIRECTION('ref_axis',(0.707106781186547,-0.707106781186547,0.));
#1462=DIRECTION('',(-0.707106781186552,0.,0.707106781186543));
#1463=DIRECTION('center_axis',(0.,0.,-1.));
#1464=DIRECTION('ref_axis',(0.707106781186548,-0.707106781186548,0.));
#1465=DIRECTION('center_axis',(0.707106781186555,0.,0.70710678118654));
#1466=DIRECTION('ref_axis',(0.70710678118654,0.,-0.707106781186555));
#1467=DIRECTION('',(-0.70710678118654,0.,0.707106781186555));
#1468=DIRECTION('',(0.,-1.,0.));
#1469=DIRECTION('',(0.,1.,0.));
#1470=DIRECTION('center_axis',(-1.,0.,0.));
#1471=DIRECTION('ref_axis',(0.,0.382683432365089,0.923879532511287));
#1472=DIRECTION('',(-0.707106781186552,0.499999999999995,0.499999999999998));
#1473=DIRECTION('center_axis',(1.,0.,0.));
#1474=DIRECTION('ref_axis',(0.,0.382683432365089,0.923879532511287));
#1475=DIRECTION('center_axis',(-1.,0.,0.));
#1476=DIRECTION('ref_axis',(0.,0.382683432365089,0.923879532511287));
#1477=DIRECTION('center_axis',(0.707106781186554,0.499999999999995,0.499999999999995));
#1478=DIRECTION('ref_axis',(0.577350269189618,0.,-0.816496580927731));
#1479=DIRECTION('',(-0.70710678118654,0.500000000000004,0.500000000000007));
#1480=DIRECTION('',(0.,-0.707106781186547,0.707106781186548));
#1481=DIRECTION('',(0.,0.707106781186547,-0.707106781186548));
#1482=DIRECTION('center_axis',(1.,0.,0.));
#1483=DIRECTION('ref_axis',(0.,-0.382683432365089,-0.923879532511287));
#1484=DIRECTION('',(-0.707106781186552,0.,0.707106781186543));
#1485=DIRECTION('center_axis',(-1.,0.,0.));
#1486=DIRECTION('ref_axis',(0.,-0.382683432365089,-0.923879532511287));
#1487=DIRECTION('center_axis',(1.,0.,0.));
#1488=DIRECTION('ref_axis',(0.,-0.382683432365089,-0.923879532511287));
#1489=DIRECTION('center_axis',(0.707106781186555,0.,0.70710678118654));
#1490=DIRECTION('ref_axis',(0.70710678118654,0.,-0.707106781186555));
#1491=DIRECTION('',(-0.70710678118654,0.,0.707106781186555));
#1492=DIRECTION('',(0.,-1.,0.));
#1493=DIRECTION('',(0.,1.,0.));
#1494=DIRECTION('',(0.,1.,0.));
#1495=DIRECTION('center_axis',(0.,0.,-1.));
#1496=DIRECTION('ref_axis',(0.707106781186547,0.707106781186547,0.));
#1497=DIRECTION('center_axis',(0.,0.,1.));
#1498=DIRECTION('ref_axis',(0.707106781186547,0.707106781186547,0.));
#1499=DIRECTION('center_axis',(0.,0.,-1.));
#1500=DIRECTION('ref_axis',(0.707106781186548,0.707106781186548,0.));
#1501=DIRECTION('center_axis',(0.,0.,-1.));
#1502=DIRECTION('ref_axis',(-0.707106781186547,-0.707106781186547,0.));
#1503=DIRECTION('',(0.,0.,-1.));
#1504=DIRECTION('center_axis',(0.,0.,1.));
#1505=DIRECTION('ref_axis',(-0.707106781186547,-0.707106781186547,0.));
#1506=DIRECTION('',(0.,0.,1.));
#1507=DIRECTION('center_axis',(-1.,0.,0.));
#1508=DIRECTION('ref_axis',(0.,-1.,0.));
#1509=DIRECTION('',(0.,0.,1.));
#1510=DIRECTION('',(0.,1.,0.));
#1511=DIRECTION('',(0.,0.,-1.));
#1512=DIRECTION('center_axis',(-1.,0.,0.));
#1513=DIRECTION('ref_axis',(0.,-1.,0.));
#1514=DIRECTION('',(0.,-1.,0.));
#1515=DIRECTION('',(0.,0.,1.));
#1516=DIRECTION('',(0.,1.,0.));
#1517=DIRECTION('center_axis',(1.,0.,0.));
#1518=DIRECTION('ref_axis',(0.,1.,0.));
#1519=DIRECTION('',(0.,0.,1.));
#1520=DIRECTION('',(0.,-1.,0.));
#1521=DIRECTION('',(0.,0.,-1.));
#1522=DIRECTION('center_axis',(0.,0.,-1.));
#1523=DIRECTION('ref_axis',(-0.707106781186547,0.707106781186547,0.));
#1524=DIRECTION('',(0.,0.,-1.));
#1525=DIRECTION('center_axis',(0.,0.,1.));
#1526=DIRECTION('ref_axis',(-0.707106781186547,0.707106781186547,0.));
#1527=DIRECTION('center_axis',(0.,1.,0.));
#1528=DIRECTION('ref_axis',(-1.,0.,0.));
#1529=DIRECTION('',(0.,0.,1.));
#1530=DIRECTION('',(1.,0.,0.));
#1531=DIRECTION('center_axis',(0.,1.,0.));
#1532=DIRECTION('ref_axis',(0.460675832036167,0.,0.887568463712961));
#1533=DIRECTION('',(1.,0.,5.1718463880054E-16));
#1534=DIRECTION('center_axis',(0.,1.,0.));
#1535=DIRECTION('ref_axis',(-0.460675832036167,0.,0.88756846371296));
#1536=DIRECTION('',(1.,0.,0.));
#1537=DIRECTION('center_axis',(1.,0.,0.));
#1538=DIRECTION('ref_axis',(0.,0.382683432365089,0.923879532511287));
#1539=DIRECTION('',(-1.,0.,0.));
#1540=DIRECTION('',(1.,0.,0.));
#1541=DIRECTION('center_axis',(0.,0.707106781186548,0.707106781186547));
#1542=DIRECTION('ref_axis',(1.,0.,0.));
#1543=DIRECTION('',(1.,0.,0.));
#1544=DIRECTION('center_axis',(-1.,0.,0.));
#1545=DIRECTION('ref_axis',(0.,-0.382683432365089,-0.923879532511287));
#1546=DIRECTION('',(-1.,0.,0.));
#1547=DIRECTION('center_axis',(0.,0.,1.));
#1548=DIRECTION('ref_axis',(1.,0.,0.));
#1549=DIRECTION('center_axis',(0.,0.,-1.));
#1550=DIRECTION('ref_axis',(-1.,0.,0.));
#1551=DIRECTION('center_axis',(0.,0.,-1.));
#1552=DIRECTION('ref_axis',(-1.,0.,0.));
#1553=DIRECTION('',(0.,0.,-1.));
#1554=DIRECTION('center_axis',(0.,0.,1.));
#1555=DIRECTION('ref_axis',(-1.,0.,0.));
#1556=DIRECTION('center_axis',(0.,0.,-1.));
#1557=DIRECTION('ref_axis',(-1.,0.,0.));
#1558=DIRECTION('center_axis',(0.,0.,-1.));
#1559=DIRECTION('ref_axis',(-1.,0.,0.));
#1560=DIRECTION('',(0.,0.,-1.));
#1561=DIRECTION('center_axis',(0.,0.,1.));
#1562=DIRECTION('ref_axis',(-1.,0.,0.));
#1563=DIRECTION('center_axis',(0.,0.,-1.));
#1564=DIRECTION('ref_axis',(-1.,0.,0.));
#1565=DIRECTION('center_axis',(0.,0.,-1.));
#1566=DIRECTION('ref_axis',(-1.,0.,0.));
#1567=DIRECTION('',(0.,0.,-1.));
#1568=DIRECTION('center_axis',(0.,0.,-1.));
#1569=DIRECTION('ref_axis',(-1.,0.,0.));
#1570=DIRECTION('center_axis',(0.,0.,1.));
#1571=DIRECTION('ref_axis',(-1.,0.,0.));
#1572=DIRECTION('center_axis',(0.,0.,-1.));
#1573=DIRECTION('ref_axis',(-1.,0.,0.));
#1574=DIRECTION('center_axis',(0.,0.,-1.));
#1575=DIRECTION('ref_axis',(-1.,0.,0.));
#1576=DIRECTION('',(0.,0.,-1.));
#1577=DIRECTION('center_axis',(0.,0.,-1.));
#1578=DIRECTION('ref_axis',(-1.,0.,0.));
#1579=DIRECTION('center_axis',(0.,0.,1.));
#1580=DIRECTION('ref_axis',(-1.,0.,0.));
#1581=DIRECTION('center_axis',(0.,0.,-1.));
#1582=DIRECTION('ref_axis',(-0.707106781186547,-0.707106781186547,0.));
#1583=DIRECTION('center_axis',(0.,0.,1.));
#1584=DIRECTION('ref_axis',(-0.707106781186547,-0.707106781186547,0.));
#1585=DIRECTION('',(0.,0.,1.));
#1586=DIRECTION('center_axis',(0.,0.,-1.));
#1587=DIRECTION('ref_axis',(-0.707106781186547,-0.707106781186547,0.));
#1588=DIRECTION('center_axis',(0.,0.,1.));
#1589=DIRECTION('ref_axis',(-0.707121333135001,0.707092228938615,0.));
#1590=DIRECTION('center_axis',(0.,0.,1.));
#1591=DIRECTION('ref_axis',(-0.707121333135001,0.707092228938615,0.));
#1592=DIRECTION('',(0.,0.,-1.));
#1593=DIRECTION('center_axis',(0.,0.,-1.));
#1594=DIRECTION('ref_axis',(-0.707121333135001,0.707092228938615,0.));
#1595=DIRECTION('',(0.,0.,1.));
#1596=DIRECTION('center_axis',(1.,0.,0.));
#1597=DIRECTION('ref_axis',(0.,1.,0.));
#1598=DIRECTION('',(0.,0.,1.));
#1599=DIRECTION('',(0.,-1.,0.));
#1600=DIRECTION('',(0.,1.,0.));
#1601=DIRECTION('center_axis',(0.,0.,1.));
#1602=DIRECTION('ref_axis',(0.707106781186547,-0.707106781186547,0.));
#1603=DIRECTION('center_axis',(0.,0.,1.));
#1604=DIRECTION('ref_axis',(0.707106781186547,-0.707106781186547,0.));
#1605=DIRECTION('center_axis',(0.,0.,-1.));
#1606=DIRECTION('ref_axis',(0.707106781186547,-0.707106781186547,0.));
#1607=DIRECTION('',(0.,0.,1.));
#1608=DIRECTION('center_axis',(0.,0.,-1.));
#1609=DIRECTION('ref_axis',(4.1159549217203E-5,0.999999999152946,0.));
#1610=DIRECTION('center_axis',(0.,0.,-1.));
#1611=DIRECTION('ref_axis',(4.1159549217203E-5,0.999999999152946,0.));
#1612=DIRECTION('center_axis',(0.,0.,1.));
#1613=DIRECTION('ref_axis',(4.1159549217203E-5,0.999999999152946,0.));
#1614=DIRECTION('',(0.,0.,1.));
#1615=DIRECTION('center_axis',(0.,0.,1.));
#1616=DIRECTION('ref_axis',(1.,0.,0.));
#1617=DIRECTION('center_axis',(0.,0.,1.));
#1618=DIRECTION('ref_axis',(1.,0.,0.));
#1619=DIRECTION('center_axis',(0.,0.,1.));
#1620=DIRECTION('ref_axis',(1.,0.,0.));
#1621=DIRECTION('',(0.,0.,1.));
#1622=DIRECTION('center_axis',(4.11595492398429E-5,-0.999999999152946,0.));
#1623=DIRECTION('ref_axis',(0.999999999152946,4.11595492398429E-5,0.));
#1624=DIRECTION('',(0.999999999152946,4.11595492398429E-5,0.));
#1625=DIRECTION('',(0.999999999152946,4.11595492398429E-5,0.));
#1626=DIRECTION('center_axis',(0.,0.,-1.));
#1627=DIRECTION('ref_axis',(1.,0.,0.));
#1628=DIRECTION('center_axis',(0.,0.,1.));
#1629=DIRECTION('ref_axis',(-0.999999999788237,-2.05797746153161E-5,0.));
#1630=DIRECTION('center_axis',(0.,0.,1.));
#1631=DIRECTION('ref_axis',(1.,0.,0.));
#1632=DIRECTION('center_axis',(0.,0.,1.));
#1633=DIRECTION('ref_axis',(1.,0.,0.));
#1634=DIRECTION('center_axis',(0.,0.,-1.));
#1635=DIRECTION('ref_axis',(1.,0.,0.));
#1636=DIRECTION('center_axis',(0.,-1.,0.));
#1637=DIRECTION('ref_axis',(0.,0.,-1.));
#1638=DIRECTION('center_axis',(0.,-1.,0.));
#1639=DIRECTION('ref_axis',(0.460675832036167,0.,0.887568463712961));
#1640=DIRECTION('center_axis',(1.,0.,0.));
#1641=DIRECTION('ref_axis',(0.,0.,-1.));
#1642=DIRECTION('center_axis',(-1.,0.,-5.1718463880054E-16));
#1643=DIRECTION('ref_axis',(0.,0.707106781186546,-0.707106781186549));
#1644=DIRECTION('center_axis',(1.,0.,0.));
#1645=DIRECTION('ref_axis',(0.,0.,-1.));
#1646=DIRECTION('',(-1.,0.,-5.1718463880054E-16));
#1647=DIRECTION('center_axis',(0.,-1.,0.));
#1648=DIRECTION('ref_axis',(0.,0.,-1.));
#1649=DIRECTION('center_axis',(0.,-1.,0.));
#1650=DIRECTION('ref_axis',(-0.460675832036168,0.,0.88756846371296));
#1651=DIRECTION('center_axis',(-5.1718463880054E-16,0.,1.));
#1652=DIRECTION('ref_axis',(-1.,0.,-5.1718463880054E-16));
#1653=DIRECTION('',(0.,-1.,0.));
#1654=DIRECTION('',(1.,0.,5.1718463880054E-16));
#1655=DIRECTION('',(0.,-1.,0.));
#1656=DIRECTION('center_axis',(0.,-1.,0.));
#1657=DIRECTION('ref_axis',(0.,0.,1.));
#1658=DIRECTION('',(0.,-1.,0.));
#1659=DIRECTION('center_axis',(0.,1.,0.));
#1660=DIRECTION('ref_axis',(0.707106781186548,0.,0.707106781186547));
#1661=DIRECTION('center_axis',(0.,0.,1.));
#1662=DIRECTION('ref_axis',(0.707106781186547,0.707106781186547,0.));
#1663=DIRECTION('center_axis',(0.,0.,1.));
#1664=DIRECTION('ref_axis',(0.707106781186547,0.707106781186547,0.));
#1665=DIRECTION('center_axis',(0.,0.,1.));
#1666=DIRECTION('ref_axis',(1.,0.,0.));
#1667=DIRECTION('',(0.,1.,0.));
#1668=DIRECTION('',(1.,0.,0.));
#1669=DIRECTION('',(0.,1.,0.));
#1670=DIRECTION('',(-1.,0.,0.));
#1671=DIRECTION('',(0.,-1.,0.));
#1672=DIRECTION('',(1.,0.,0.));
#1673=DIRECTION('center_axis',(0.,0.,1.));
#1674=DIRECTION('ref_axis',(0.707106781186547,-0.707106781186547,0.));
#1675=DIRECTION('',(-1.,0.,0.));
#1676=DIRECTION('center_axis',(0.,-1.,0.));
#1677=DIRECTION('ref_axis',(1.,0.,0.));
#1678=DIRECTION('',(0.,0.,-1.));
#1679=DIRECTION('center_axis',(0.,0.,1.));
#1680=DIRECTION('ref_axis',(0.707106781186547,-0.707106781186547,0.));
#1681=DIRECTION('center_axis',(0.,-1.,0.));
#1682=DIRECTION('ref_axis',(-1.,0.,-4.93432455388959E-16));
#1683=DIRECTION('center_axis',(0.,1.,0.));
#1684=DIRECTION('ref_axis',(-0.707106781186549,0.,0.707106781186545));
#1685=DIRECTION('center_axis',(1.,0.,0.));
#1686=DIRECTION('ref_axis',(0.,1.,0.));
#1687=DIRECTION('',(0.,0.,1.));
#1688=DIRECTION('',(0.,-1.,1.11022302462516E-15));
#1689=DIRECTION('',(0.,-0.707106781186548,0.707106781186547));
#1690=DIRECTION('',(0.,0.,1.));
#1691=DIRECTION('',(0.,-1.,0.));
#1692=DIRECTION('',(0.,0.,1.));
#1693=DIRECTION('center_axis',(0.,-1.,0.));
#1694=DIRECTION('ref_axis',(0.,0.,-1.));
#1695=DIRECTION('center_axis',(-1.,0.,0.));
#1696=DIRECTION('ref_axis',(0.,0.,-1.));
#1697=DIRECTION('center_axis',(0.,-1.,0.));
#1698=DIRECTION('ref_axis',(-0.707106781186549,0.,0.707106781186545));
#1699=DIRECTION('center_axis',(0.,1.,0.));
#1700=DIRECTION('ref_axis',(-1.,0.,0.));
#1701=DIRECTION('',(-1.,0.,-5.1718463880054E-16));
#1702=DIRECTION('center_axis',(0.,-1.,0.));
#1703=DIRECTION('ref_axis',(0.707106781186548,0.,0.707106781186547));
#1704=DIRECTION('',(0.,0.,1.));
#1705=DIRECTION('',(-1.,0.,0.));
#1706=DIRECTION('center_axis',(0.,0.,1.));
#1707=DIRECTION('ref_axis',(1.,0.,0.));
#1708=DIRECTION('',(1.,0.,0.));
#1709=DIRECTION('center_axis',(0.,0.,-1.));
#1710=DIRECTION('ref_axis',(1.,2.96059473233374E-15,0.));
#1711=DIRECTION('',(0.,-1.,0.));
#1712=DIRECTION('center_axis',(0.,0.,-1.));
#1713=DIRECTION('ref_axis',(2.96059473233374E-15,-1.,0.));
#1714=DIRECTION('',(-1.,0.,0.));
#1715=DIRECTION('center_axis',(0.,0.,-1.));
#1716=DIRECTION('ref_axis',(-1.,-2.96059473233374E-15,0.));
#1717=DIRECTION('',(0.,1.,0.));
#1718=DIRECTION('center_axis',(0.,0.,-1.));
#1719=DIRECTION('ref_axis',(-2.96059473233374E-15,1.,0.));
#1720=DIRECTION('center_axis',(0.,0.,-1.));
#1721=DIRECTION('ref_axis',(-1.,-2.96059473233374E-15,0.));
#1722=DIRECTION('',(0.,0.,-1.));
#1723=DIRECTION('center_axis',(0.,0.,1.));
#1724=DIRECTION('ref_axis',(-1.,-2.96059473233374E-15,0.));
#1725=DIRECTION('',(0.,0.,-1.));
#1726=DIRECTION('center_axis',(1.,0.,0.));
#1727=DIRECTION('ref_axis',(0.,-1.,0.));
#1728=DIRECTION('',(0.,-1.,0.));
#1729=DIRECTION('',(0.,0.,-1.));
#1730=DIRECTION('center_axis',(0.,0.,-1.));
#1731=DIRECTION('ref_axis',(-2.96059473233374E-15,1.,0.));
#1732=DIRECTION('center_axis',(0.,0.,1.));
#1733=DIRECTION('ref_axis',(-2.96059473233374E-15,1.,0.));
#1734=DIRECTION('',(0.,0.,-1.));
#1735=DIRECTION('center_axis',(0.,1.,0.));
#1736=DIRECTION('ref_axis',(0.,0.,1.));
#1737=DIRECTION('center_axis',(1.,0.,0.));
#1738=DIRECTION('ref_axis',(0.,-1.,0.));
#1739=DIRECTION('center_axis',(-1.,0.,-5.1718463880054E-16));
#1740=DIRECTION('ref_axis',(0.,-0.707106781186546,-0.707106781186549));
#1741=DIRECTION('center_axis',(0.,-0.707106781186547,-0.707106781186548));
#1742=DIRECTION('ref_axis',(-1.,0.,0.));
#1743=DIRECTION('',(1.,0.,0.));
#1744=DIRECTION('',(0.,0.707106781186548,-0.707106781186547));
#1745=DIRECTION('',(-1.,0.,0.));
#1746=DIRECTION('center_axis',(0.,1.,0.));
#1747=DIRECTION('ref_axis',(-1.,0.,0.));
#1748=DIRECTION('',(0.,0.,-1.));
#1749=DIRECTION('',(-1.,0.,0.));
#1750=DIRECTION('center_axis',(0.,1.,0.));
#1751=DIRECTION('ref_axis',(-1.,0.,0.));
#1752=DIRECTION('',(1.,0.,0.));
#1753=DIRECTION('',(0.,0.,1.));
#1754=DIRECTION('center_axis',(-1.,0.,0.));
#1755=DIRECTION('ref_axis',(0.,-1.,0.));
#1756=DIRECTION('',(0.,1.,0.));
#1757=DIRECTION('',(0.,1.,-1.11022302462516E-15));
#1758=DIRECTION('center_axis',(0.,0.,1.));
#1759=DIRECTION('ref_axis',(-1.,0.,0.));
#1760=DIRECTION('',(-1.,0.,0.));
#1761=DIRECTION('',(1.,0.,0.));
#1762=DIRECTION('center_axis',(0.,0.,1.));
#1763=DIRECTION('ref_axis',(2.96059473233374E-15,-1.,0.));
#1764=DIRECTION('',(0.,1.,0.));
#1765=DIRECTION('center_axis',(0.,0.,1.));
#1766=DIRECTION('ref_axis',(1.,2.96059473233374E-15,0.));
#1767=DIRECTION('center_axis',(0.,0.,-1.));
#1768=DIRECTION('ref_axis',(2.96059473233374E-15,-1.,0.));
#1769=DIRECTION('',(0.,0.,-1.));
#1770=DIRECTION('',(0.,0.,-1.));
#1771=DIRECTION('center_axis',(-1.,0.,0.));
#1772=DIRECTION('ref_axis',(0.,1.,0.));
#1773=DIRECTION('',(0.,0.,-1.));
#1774=DIRECTION('center_axis',(0.,0.,-1.));
#1775=DIRECTION('ref_axis',(1.,2.96059473233374E-15,0.));
#1776=DIRECTION('',(0.,0.,-1.));
#1777=DIRECTION('center_axis',(0.,-2.11582912792139E-16,-1.));
#1778=DIRECTION('ref_axis',(0.,-1.,2.11582912792139E-16));
#1779=DIRECTION('center_axis',(0.,-1.,0.));
#1780=DIRECTION('ref_axis',(-1.,0.,0.));
#1781=DIRECTION('center_axis',(0.,1.,0.));
#1782=DIRECTION('ref_axis',(1.,0.,0.));
#1783=CARTESIAN_POINT('',(0.,0.,0.));
#1784=CARTESIAN_POINT('Origin',(133.2875,-52.725,13.25));
#1785=CARTESIAN_POINT('',(114.05,-52.475,13.));
#1786=CARTESIAN_POINT('',(114.05,-52.975,13.5));
#1787=CARTESIAN_POINT('',(114.05,-52.475,13.));
#1788=CARTESIAN_POINT('',(138.7,-52.975,13.5));
#1789=CARTESIAN_POINT('',(133.2875,-52.975,13.5));
#1790=CARTESIAN_POINT('',(138.7,-52.475,13.));
#1791=CARTESIAN_POINT('',(138.7,-52.975,13.5));
#1792=CARTESIAN_POINT('',(133.2875,-52.475,13.));
#1793=CARTESIAN_POINT('Origin',(114.05,-54.975,13.25));
#1794=CARTESIAN_POINT('',(111.55,-54.975,13.));
#1795=CARTESIAN_POINT('Origin',(114.05,-54.975,13.));
#1796=CARTESIAN_POINT('',(112.05,-54.975,13.5));
#1797=CARTESIAN_POINT('',(111.55,-54.975,13.));
#1798=CARTESIAN_POINT('Origin',(114.05,-54.975,13.5));
#1799=CARTESIAN_POINT('Origin',(111.8,-65.019375,13.25));
#1800=CARTESIAN_POINT('',(111.55,-69.6456054164805,13.));
#1801=CARTESIAN_POINT('',(112.05,-69.6456054164805,13.5));
#1802=CARTESIAN_POINT('',(111.55,-69.6456054164805,13.));
#1803=CARTESIAN_POINT('',(112.05,-65.019375,13.5));
#1804=CARTESIAN_POINT('',(111.55,-69.06375,13.));
#1805=CARTESIAN_POINT('',(111.55,-65.019375,13.));
#1806=CARTESIAN_POINT('',(111.55,-65.019375,13.));
#1807=CARTESIAN_POINT('Origin',(111.8,-69.6456054164805,18.5));
#1808=CARTESIAN_POINT('',(111.55,-73.5346927130065,14.610912703474));
#1809=CARTESIAN_POINT('',(112.05,-73.1811393224132,14.9644660940673));
#1810=CARTESIAN_POINT('',(111.55,-73.5346927130065,14.610912703474));
#1811=CARTESIAN_POINT('Origin',(112.05,-69.6456054164805,18.5));
#1812=CARTESIAN_POINT('Origin',(111.55,-69.6456054164805,18.5));
#1813=CARTESIAN_POINT('Origin',(111.8,-63.7080316165561,5.13780499761688));
#1814=CARTESIAN_POINT('',(111.55,-75.571760524872,16.6479805153395));
#1815=CARTESIAN_POINT('',(112.05,-75.2182071342787,17.0015339059327));
#1816=CARTESIAN_POINT('',(111.55,-75.571760524872,16.6479805153395));
#1817=CARTESIAN_POINT('',(112.05,-63.5312549212595,5.31458169291351));
#1818=CARTESIAN_POINT('',(111.55,-63.8848083118528,4.96102830232024));
#1819=CARTESIAN_POINT('Origin',(111.8,-78.7537410402114,13.466));
#1820=CARTESIAN_POINT('',(111.55,-78.7537410402114,17.966));
#1821=CARTESIAN_POINT('',(112.05,-78.7537410402114,18.466));
#1822=CARTESIAN_POINT('',(111.55,-78.7537410402114,17.966));
#1823=CARTESIAN_POINT('Origin',(112.05,-78.7537410402114,13.466));
#1824=CARTESIAN_POINT('Origin',(111.55,-78.7537410402114,13.466));
#1825=CARTESIAN_POINT('Origin',(111.8,-71.0797933070865,18.216));
#1826=CARTESIAN_POINT('',(111.55,-98.1525,17.966));
#1827=CARTESIAN_POINT('',(111.55,-71.0797933070865,17.966));
#1828=CARTESIAN_POINT('',(112.05,-98.1525,18.466));
#1829=CARTESIAN_POINT('',(111.55,-98.1525,17.966));
#1830=CARTESIAN_POINT('',(112.05,-71.0797933070865,18.466));
#1831=CARTESIAN_POINT('Origin',(114.05,-98.1525,18.216));
#1832=CARTESIAN_POINT('',(114.05,-100.6525,17.966));
#1833=CARTESIAN_POINT('Origin',(114.05,-98.1525,17.966));
#1834=CARTESIAN_POINT('',(114.05,-100.1525,18.466));
#1835=CARTESIAN_POINT('',(114.05,-100.6525,17.966));
#1836=CARTESIAN_POINT('Origin',(114.05,-98.1525,18.466));
#1837=CARTESIAN_POINT('Origin',(119.4625,-100.4025,18.216));
#1838=CARTESIAN_POINT('',(138.7,-100.6525,17.966));
#1839=CARTESIAN_POINT('',(138.7,-100.1525,18.466));
#1840=CARTESIAN_POINT('',(138.7,-100.6525,17.966));
#1841=CARTESIAN_POINT('',(119.4625,-100.1525,18.466));
#1842=CARTESIAN_POINT('',(119.4625,-100.6525,17.966));
#1843=CARTESIAN_POINT('Origin',(138.7,-98.1525,18.216));
#1844=CARTESIAN_POINT('',(141.2,-98.1525,17.966));
#1845=CARTESIAN_POINT('Origin',(138.7,-98.1525,17.966));
#1846=CARTESIAN_POINT('',(140.7,-98.1525,18.466));
#1847=CARTESIAN_POINT('',(141.2,-98.1525,17.966));
#1848=CARTESIAN_POINT('Origin',(138.7,-98.1525,18.466));
#1849=CARTESIAN_POINT('Origin',(140.95,-94.1685433070865,18.216));
#1850=CARTESIAN_POINT('',(141.2,-78.7537410402114,17.966));
#1851=CARTESIAN_POINT('',(140.7,-78.7537410402114,18.466));
#1852=CARTESIAN_POINT('',(141.2,-78.7537410402114,17.966));
#1853=CARTESIAN_POINT('',(140.7,-94.1685433070865,18.466));
#1854=CARTESIAN_POINT('',(141.2,-94.1685433070865,17.966));
#1855=CARTESIAN_POINT('Origin',(140.95,-78.7537410402114,13.466));
#1856=CARTESIAN_POINT('',(141.2,-75.571760524872,16.6479805153395));
#1857=CARTESIAN_POINT('',(140.7,-75.2182071342787,17.0015339059327));
#1858=CARTESIAN_POINT('',(141.2,-75.571760524872,16.6479805153395));
#1859=CARTESIAN_POINT('Origin',(140.7,-78.7537410402114,13.466));
#1860=CARTESIAN_POINT('Origin',(141.2,-78.7537410402114,13.466));
#1861=CARTESIAN_POINT('Origin',(140.95,-75.2524066165561,16.6821799976169));
#1862=CARTESIAN_POINT('',(141.2,-73.5346927130065,14.610912703474));
#1863=CARTESIAN_POINT('',(140.7,-73.1811393224132,14.9644660940673));
#1864=CARTESIAN_POINT('',(141.2,-73.5346927130065,14.610912703474));
#1865=CARTESIAN_POINT('',(140.7,-75.0756299212595,16.8589566929135));
#1866=CARTESIAN_POINT('',(141.2,-75.4291833118527,16.5054033023202));
#1867=CARTESIAN_POINT('Origin',(140.95,-69.6456054164805,18.5));
#1868=CARTESIAN_POINT('',(141.2,-69.6456054164805,13.));
#1869=CARTESIAN_POINT('',(140.7,-69.6456054164805,13.5));
#1870=CARTESIAN_POINT('',(141.2,-69.6456054164805,13.));
#1871=CARTESIAN_POINT('Origin',(140.7,-69.6456054164805,18.5));
#1872=CARTESIAN_POINT('Origin',(141.2,-69.6456054164805,18.5));
#1873=CARTESIAN_POINT('Origin',(140.95,-88.108125,13.25));
#1874=CARTESIAN_POINT('',(141.2,-54.975,13.));
#1875=CARTESIAN_POINT('',(140.7,-54.975,13.5));
#1876=CARTESIAN_POINT('',(141.2,-54.975,13.));
#1877=CARTESIAN_POINT('',(140.7,-88.108125,13.5));
#1878=CARTESIAN_POINT('',(141.2,-69.06375,13.));
#1879=CARTESIAN_POINT('',(141.2,-88.1077813185577,13.));
#1880=CARTESIAN_POINT('',(141.2,-88.108125,13.));
#1881=CARTESIAN_POINT('Origin',(138.7,-54.975,13.25));
#1882=CARTESIAN_POINT('Origin',(138.7,-54.975,13.));
#1883=CARTESIAN_POINT('Origin',(138.7,-54.975,13.5));
#1884=CARTESIAN_POINT('Origin',(114.05,-98.1525,-2.));
#1885=CARTESIAN_POINT('',(111.55,-98.1525,8.5));
#1886=CARTESIAN_POINT('',(111.55,-98.1525,-2.));
#1887=CARTESIAN_POINT('',(114.05,-100.6525,8.5));
#1888=CARTESIAN_POINT('Origin',(114.05,-98.1525,8.5));
#1889=CARTESIAN_POINT('',(114.05,-100.6525,-2.));
#1890=CARTESIAN_POINT('Origin',(111.55,-53.475,-2.));
#1891=CARTESIAN_POINT('',(111.55,-54.975,8.5));
#1892=CARTESIAN_POINT('',(111.55,-54.975,-2.));
#1893=CARTESIAN_POINT('',(111.55,-69.06375,8.5));
#1894=CARTESIAN_POINT('',(111.55,-65.019375,8.5));
#1895=CARTESIAN_POINT('',(111.55,-69.06375,-4.5));
#1896=CARTESIAN_POINT('Origin',(111.55,-53.475,-2.));
#1897=CARTESIAN_POINT('',(111.55,-84.0637499936471,13.));
#1898=CARTESIAN_POINT('',(111.55,-65.019375,13.));
#1899=CARTESIAN_POINT('',(111.55,-84.0637499936471,8.5));
#1900=CARTESIAN_POINT('',(111.55,-84.0637499936471,-7.));
#1901=CARTESIAN_POINT('',(111.55,-65.019375,8.5));
#1902=CARTESIAN_POINT('Origin',(141.2,-99.6525,-2.));
#1903=CARTESIAN_POINT('',(141.2,-69.06375,8.5));
#1904=CARTESIAN_POINT('',(141.2,-69.06375,-4.5));
#1905=CARTESIAN_POINT('',(141.2,-54.975,8.5));
#1906=CARTESIAN_POINT('',(141.2,-88.108125,8.5));
#1907=CARTESIAN_POINT('',(141.2,-54.975,-2.));
#1908=CARTESIAN_POINT('Origin',(114.05,-54.975,-2.));
#1909=CARTESIAN_POINT('',(114.05,-52.475,8.5));
#1910=CARTESIAN_POINT('',(114.05,-52.475,-2.));
#1911=CARTESIAN_POINT('Origin',(114.05,-54.975,8.5));
#1912=CARTESIAN_POINT('Origin',(140.2,-52.475,-2.));
#1913=CARTESIAN_POINT('',(138.7,-52.475,8.5));
#1914=CARTESIAN_POINT('',(138.7,-52.475,-2.));
#1915=CARTESIAN_POINT('',(132.320851388482,-52.475,8.5));
#1916=CARTESIAN_POINT('',(133.2875,-52.475,8.5));
#1917=CARTESIAN_POINT('',(129.340000000036,-52.475,10.455));
#1918=CARTESIAN_POINT('Origin',(129.340000000036,-52.475,7.20499999999997));
#1919=CARTESIAN_POINT('',(122.900000000036,-52.475,10.455));
#1920=CARTESIAN_POINT('',(134.770000000018,-52.475,10.455));
#1921=CARTESIAN_POINT('',(119.91914861159,-52.475,8.5));
#1922=CARTESIAN_POINT('Origin',(122.900000000036,-52.475,7.20499999999997));
#1923=CARTESIAN_POINT('',(133.2875,-52.475,8.5));
#1924=CARTESIAN_POINT('Origin',(126.375,-78.7537410402114,13.466));
#1925=CARTESIAN_POINT('',(126.375,-75.2182071342787,17.0015339059327));
#1926=CARTESIAN_POINT('',(126.375,-78.7537410402114,18.466));
#1927=CARTESIAN_POINT('Origin',(126.375,-72.216673228346,14.));
#1928=CARTESIAN_POINT('',(126.375,-73.1811393224132,14.9644660940673));
#1929=CARTESIAN_POINT('Origin',(126.375,-69.6456054164805,18.5));
#1930=CARTESIAN_POINT('',(126.375,-69.6456054164805,13.5));
#1931=CARTESIAN_POINT('Origin',(126.375,-76.56375,13.5));
#1932=CARTESIAN_POINT('Origin',(144.95,-76.56375,10.));
#1933=CARTESIAN_POINT('',(146.3,-76.56375,10.));
#1934=CARTESIAN_POINT('Origin',(144.95,-76.56375,10.));
#1935=CARTESIAN_POINT('',(146.3,-76.56375,8.5));
#1936=CARTESIAN_POINT('',(146.3,-76.56375,10.));
#1937=CARTESIAN_POINT('Origin',(144.95,-76.56375,8.5));
#1938=CARTESIAN_POINT('Origin',(107.8,-76.56375,10.));
#1939=CARTESIAN_POINT('',(109.15,-76.56375,10.));
#1940=CARTESIAN_POINT('Origin',(107.8,-76.56375,10.));
#1941=CARTESIAN_POINT('',(109.15,-76.56375,8.5));
#1942=CARTESIAN_POINT('',(109.15,-76.56375,10.));
#1943=CARTESIAN_POINT('Origin',(107.8,-76.56375,8.5));
#1944=CARTESIAN_POINT('Origin',(144.95,-76.56375,13.));
#1945=CARTESIAN_POINT('',(147.95,-76.56375,13.));
#1946=CARTESIAN_POINT('Origin',(144.95,-76.56375,13.));
#1947=CARTESIAN_POINT('',(147.95,-76.56375,10.));
#1948=CARTESIAN_POINT('',(147.95,-76.56375,13.));
#1949=CARTESIAN_POINT('Origin',(144.95,-76.56375,10.));
#1950=CARTESIAN_POINT('Origin',(144.95,-76.56375,10.));
#1951=CARTESIAN_POINT('Origin',(107.8,-76.56375,13.));
#1952=CARTESIAN_POINT('',(110.8,-76.56375,13.));
#1953=CARTESIAN_POINT('Origin',(107.8,-76.56375,13.));
#1954=CARTESIAN_POINT('',(110.8,-76.56375,10.));
#1955=CARTESIAN_POINT('',(110.8,-76.56375,13.));
#1956=CARTESIAN_POINT('Origin',(107.8,-76.56375,10.));
#1957=CARTESIAN_POINT('Origin',(107.8,-76.56375,10.));
#1958=CARTESIAN_POINT('Origin',(144.95,-69.06375,-4.5));
#1959=CARTESIAN_POINT('',(144.95,-72.81375,13.));
#1960=CARTESIAN_POINT('Origin',(144.95,-69.06375,13.));
#1961=CARTESIAN_POINT('',(144.95,-72.81375,8.5));
#1962=CARTESIAN_POINT('',(144.95,-72.81375,-7.));
#1963=CARTESIAN_POINT('Origin',(144.95,-69.06375,8.5));
#1964=CARTESIAN_POINT('Origin',(144.95,-84.0622209290974,-4.5));
#1965=CARTESIAN_POINT('',(144.94984565169,-80.3122209322738,13.));
#1966=CARTESIAN_POINT('',(141.2,-84.0622209290974,13.));
#1967=CARTESIAN_POINT('Origin',(144.95,-84.0622209290974,13.));
#1968=CARTESIAN_POINT('',(141.2,-84.0622209290974,8.5));
#1969=CARTESIAN_POINT('',(141.2,-84.0622209290974,-4.5));
#1970=CARTESIAN_POINT('',(144.94984565169,-80.3122209322738,8.5));
#1971=CARTESIAN_POINT('Origin',(144.95,-84.0622209290974,8.5));
#1972=CARTESIAN_POINT('',(144.94984565169,-80.3122209322738,-4.5));
#1973=CARTESIAN_POINT('Origin',(141.2,-99.6525,-2.));
#1974=CARTESIAN_POINT('',(141.2,-98.1525,8.5));
#1975=CARTESIAN_POINT('',(141.2,-98.1525,-2.));
#1976=CARTESIAN_POINT('',(141.2,-88.108125,8.5));
#1977=CARTESIAN_POINT('',(141.2,-88.1077813185577,13.));
#1978=CARTESIAN_POINT('Origin',(107.8,-69.06375,-4.5));
#1979=CARTESIAN_POINT('',(107.8,-72.81375,13.));
#1980=CARTESIAN_POINT('Origin',(107.8,-69.06375,13.));
#1981=CARTESIAN_POINT('',(107.8,-72.81375,8.5));
#1982=CARTESIAN_POINT('Origin',(107.8,-69.06375,8.5));
#1983=CARTESIAN_POINT('',(107.8,-72.81375,-7.));
#1984=CARTESIAN_POINT('Origin',(107.8,-84.0637499936471,-7.));
#1985=CARTESIAN_POINT('',(107.80015434831,-80.3137499968236,8.5));
#1986=CARTESIAN_POINT('Origin',(107.8,-84.0637499936471,8.5));
#1987=CARTESIAN_POINT('',(107.80015434831,-80.3137499968236,13.));
#1988=CARTESIAN_POINT('Origin',(107.8,-84.0637499936471,13.));
#1989=CARTESIAN_POINT('',(107.80015434831,-80.3137499968236,-7.));
#1990=CARTESIAN_POINT('Origin',(144.95,-76.56375,-7.));
#1991=CARTESIAN_POINT('',(145.057232487218,-80.3122165122801,8.5));
#1992=CARTESIAN_POINT('Origin',(144.95,-76.56375,8.5));
#1993=CARTESIAN_POINT('',(145.057232487218,-80.3122165122801,13.));
#1994=CARTESIAN_POINT('Origin',(144.95,-76.56375,13.));
#1995=CARTESIAN_POINT('',(145.057232487218,-80.3122165122801,-7.));
#1996=CARTESIAN_POINT('Origin',(141.2,-80.3123752742307,-7.));
#1997=CARTESIAN_POINT('',(133.787577158421,-80.3126803662139,8.5));
#1998=CARTESIAN_POINT('',(145.057232487218,-80.3122165122801,13.));
#1999=CARTESIAN_POINT('Origin',(144.95,-76.5630626371154,13.));
#2000=CARTESIAN_POINT('Origin',(107.8,-76.56375,-7.));
#2001=CARTESIAN_POINT('Origin',(107.8,-76.56375,8.5));
#2002=CARTESIAN_POINT('Origin',(107.8,-76.56375,13.));
#2003=CARTESIAN_POINT('Origin',(107.8,-76.56375,13.));
#2004=CARTESIAN_POINT('Origin',(129.340000000036,-53.475,7.20499999999997));
#2005=CARTESIAN_POINT('',(131.179966032331,-53.475,8.5));
#2006=CARTESIAN_POINT('Ctrl Pts',(132.320851388482,-52.475,8.5));
#2007=CARTESIAN_POINT('Ctrl Pts',(132.18046152619,-52.475,8.5));
#2008=CARTESIAN_POINT('Ctrl Pts',(132.014914842765,-52.5062363082383,8.5));
#2009=CARTESIAN_POINT('Ctrl Pts',(131.75379558555,-52.6064398313624,8.5));
#2010=CARTESIAN_POINT('Ctrl Pts',(131.610791737572,-52.6929883098237,8.5));
#2011=CARTESIAN_POINT('Ctrl Pts',(131.411175734039,-52.8734420518105,8.5));
#2012=CARTESIAN_POINT('Ctrl Pts',(131.316344265007,-52.9969997635442,8.5));
#2013=CARTESIAN_POINT('Ctrl Pts',(131.212050004961,-53.2208868937644,8.5));
#2014=CARTESIAN_POINT('Ctrl Pts',(131.179966032331,-53.3578082269903,8.5));
#2015=CARTESIAN_POINT('Ctrl Pts',(131.179966032331,-53.475,8.5));
#2016=CARTESIAN_POINT('',(129.340000000036,-53.475,9.45499999999998));
#2017=CARTESIAN_POINT('Origin',(129.340000000036,-53.475,7.20499999999997));
#2018=CARTESIAN_POINT('Origin',(129.340000000036,-53.475,10.455));
#2019=CARTESIAN_POINT('Origin',(134.770000000018,-53.475,10.455));
#2020=CARTESIAN_POINT('',(122.900000000036,-53.475,9.45499999999997));
#2021=CARTESIAN_POINT('Origin',(122.900000000036,-53.475,10.455));
#2022=CARTESIAN_POINT('',(134.770000000018,-53.475,9.45499999999998));
#2023=CARTESIAN_POINT('Origin',(122.900000000036,-53.475,7.20499999999997));
#2024=CARTESIAN_POINT('',(121.06003396774,-53.475,8.5));
#2025=CARTESIAN_POINT('Ctrl Pts',(121.06003396774,-53.475,8.5));
#2026=CARTESIAN_POINT('Ctrl Pts',(121.06003396774,-53.3578082269903,8.5));
#2027=CARTESIAN_POINT('Ctrl Pts',(121.027949995111,-53.2208868937644,8.5));
#2028=CARTESIAN_POINT('Ctrl Pts',(120.923655735064,-52.9969997635442,8.5));
#2029=CARTESIAN_POINT('Ctrl Pts',(120.828824266033,-52.8734420518105,8.5));
#2030=CARTESIAN_POINT('Ctrl Pts',(120.629208262499,-52.6929883098237,8.5));
#2031=CARTESIAN_POINT('Ctrl Pts',(120.486204414521,-52.6064398313624,8.5));
#2032=CARTESIAN_POINT('Ctrl Pts',(120.225085157307,-52.5062363082383,8.5));
#2033=CARTESIAN_POINT('Ctrl Pts',(120.059538473882,-52.475,8.5));
#2034=CARTESIAN_POINT('Ctrl Pts',(119.91914861159,-52.475,8.5));
#2035=CARTESIAN_POINT('Origin',(122.900000000036,-53.475,7.20499999999997));
#2036=CARTESIAN_POINT('Origin',(129.340000000036,-53.475,9.45499999999998));
#2037=CARTESIAN_POINT('',(129.340000000036,-54.975,9.45499999999998));
#2038=CARTESIAN_POINT('',(129.340000000036,-53.475,9.45499999999998));
#2039=CARTESIAN_POINT('',(122.900000000036,-54.975,9.45499999999997));
#2040=CARTESIAN_POINT('',(127.730000000036,-54.975,9.45499999999998));
#2041=CARTESIAN_POINT('',(122.900000000036,-53.475,9.45499999999997));
#2042=CARTESIAN_POINT('Origin',(129.340000000036,-53.475,7.20499999999997));
#2043=CARTESIAN_POINT('',(131.179966032331,-54.975,8.5));
#2044=CARTESIAN_POINT('',(131.179966032331,-53.475,8.5));
#2045=CARTESIAN_POINT('Origin',(129.340000000036,-54.975,7.20499999999997));
#2046=CARTESIAN_POINT('Origin',(138.7,-54.975,-2.));
#2047=CARTESIAN_POINT('Origin',(138.7,-54.975,8.5));
#2048=CARTESIAN_POINT('Origin',(126.375,-76.56375,8.5));
#2049=CARTESIAN_POINT('',(121.06003396774,-54.975,8.5));
#2050=CARTESIAN_POINT('',(121.06003396774,-53.475,8.5));
#2051=CARTESIAN_POINT('',(119.91914861159,-55.975,8.5));
#2052=CARTESIAN_POINT('Ctrl Pts',(119.91914861159,-55.975,8.5));
#2053=CARTESIAN_POINT('Ctrl Pts',(120.059538473882,-55.975,8.5));
#2054=CARTESIAN_POINT('Ctrl Pts',(120.225085157307,-55.9437636917617,8.5));
#2055=CARTESIAN_POINT('Ctrl Pts',(120.486204414521,-55.8435601686376,8.5));
#2056=CARTESIAN_POINT('Ctrl Pts',(120.629208262499,-55.7570116901763,8.5));
#2057=CARTESIAN_POINT('Ctrl Pts',(120.828824266033,-55.5765579481895,8.5));
#2058=CARTESIAN_POINT('Ctrl Pts',(120.923655735064,-55.4530002364558,8.5));
#2059=CARTESIAN_POINT('Ctrl Pts',(121.027949995111,-55.2291131062356,8.5));
#2060=CARTESIAN_POINT('Ctrl Pts',(121.06003396774,-55.0921917730097,8.5));
#2061=CARTESIAN_POINT('Ctrl Pts',(121.06003396774,-54.975,8.5));
#2062=CARTESIAN_POINT('',(115.05,-55.975,8.5));
#2063=CARTESIAN_POINT('',(126.247500000018,-55.975,8.5));
#2064=CARTESIAN_POINT('',(115.05,-97.1525,8.5));
#2065=CARTESIAN_POINT('',(115.05,-86.858125,8.5));
#2066=CARTESIAN_POINT('',(137.7,-97.1525,8.5));
#2067=CARTESIAN_POINT('',(132.0375,-97.1525,8.5));
#2068=CARTESIAN_POINT('',(137.7,-55.975,8.5));
#2069=CARTESIAN_POINT('',(137.7,-66.269375,8.5));
#2070=CARTESIAN_POINT('',(132.320851388482,-55.975,8.5));
#2071=CARTESIAN_POINT('',(126.247500000018,-55.975,8.5));
#2072=CARTESIAN_POINT('Ctrl Pts',(131.179966032331,-54.975,8.5));
#2073=CARTESIAN_POINT('Ctrl Pts',(131.179966032331,-55.0921917730097,8.5));
#2074=CARTESIAN_POINT('Ctrl Pts',(131.212050004961,-55.2291131062356,8.5));
#2075=CARTESIAN_POINT('Ctrl Pts',(131.316344265007,-55.4530002364558,8.5));
#2076=CARTESIAN_POINT('Ctrl Pts',(131.411175734039,-55.5765579481895,8.5));
#2077=CARTESIAN_POINT('Ctrl Pts',(131.610791737572,-55.7570116901763,8.5));
#2078=CARTESIAN_POINT('Ctrl Pts',(131.75379558555,-55.8435601686376,8.5));
#2079=CARTESIAN_POINT('Ctrl Pts',(132.014914842765,-55.9437636917617,8.5));
#2080=CARTESIAN_POINT('Ctrl Pts',(132.18046152619,-55.975,8.5));
#2081=CARTESIAN_POINT('Ctrl Pts',(132.320851388482,-55.975,8.5));
#2082=CARTESIAN_POINT('',(138.7,-100.6525,8.5));
#2083=CARTESIAN_POINT('Origin',(138.7,-98.1525,8.5));
#2084=CARTESIAN_POINT('',(119.4625,-100.6525,8.5));
#2085=CARTESIAN_POINT('Origin',(112.55,-100.6525,-2.));
#2086=CARTESIAN_POINT('',(138.7,-100.6525,-2.));
#2087=CARTESIAN_POINT('Origin',(138.7,-98.1525,-2.));
#2088=CARTESIAN_POINT('Origin',(122.900000000036,-53.475,7.20499999999997));
#2089=CARTESIAN_POINT('Origin',(122.900000000036,-54.975,7.20499999999997));
#2090=CARTESIAN_POINT('Origin',(115.05,-97.1525,-2.));
#2091=CARTESIAN_POINT('',(115.05,-55.975,10.5));
#2092=CARTESIAN_POINT('',(115.05,-55.975,-2.));
#2093=CARTESIAN_POINT('',(115.05,-72.716673228346,10.5));
#2094=CARTESIAN_POINT('',(115.05,-84.184586614173,10.5));
#2095=CARTESIAN_POINT('',(115.05,-77.716673228346,15.5));
#2096=CARTESIAN_POINT('',(115.05,-76.9506299212595,14.7339566929135));
#2097=CARTESIAN_POINT('',(115.05,-77.716673228346,17.466));
#2098=CARTESIAN_POINT('',(115.05,-77.716673228346,4.5));
#2099=CARTESIAN_POINT('',(115.05,-97.1525,17.466));
#2100=CARTESIAN_POINT('',(115.05,-92.2935433070865,17.466));
#2101=CARTESIAN_POINT('',(115.05,-97.1525,-2.));
#2102=CARTESIAN_POINT('Origin',(122.900000000036,-54.975,7.20499999999997));
#2103=CARTESIAN_POINT('',(122.900000000036,-55.975,10.455));
#2104=CARTESIAN_POINT('Origin',(122.900000000036,-54.975,10.455));
#2105=CARTESIAN_POINT('Origin',(122.900000000036,-55.975,7.20499999999997));
#2106=CARTESIAN_POINT('Origin',(126.120000000036,-55.975,6.84999999999997));
#2107=CARTESIAN_POINT('',(129.340000000036,-55.975,10.455));
#2108=CARTESIAN_POINT('',(127.730000000036,-55.975,10.455));
#2109=CARTESIAN_POINT('Origin',(129.340000000036,-55.975,7.20499999999997));
#2110=CARTESIAN_POINT('',(137.7,-55.975,10.5));
#2111=CARTESIAN_POINT('',(137.7,-55.975,-2.));
#2112=CARTESIAN_POINT('',(127.625,-55.975,10.5));
#2113=CARTESIAN_POINT('Origin',(126.375,-88.684586614173,18.466));
#2114=CARTESIAN_POINT('',(123.830413385827,-78.934586614173,18.466));
#2115=CARTESIAN_POINT('',(128.830413385827,-78.934586614173,18.466));
#2116=CARTESIAN_POINT('',(128.830413385827,-78.934586614173,18.466));
#2117=CARTESIAN_POINT('',(134.830413385827,-84.934586614173,18.466));
#2118=CARTESIAN_POINT('Origin',(128.830413385827,-84.934586614173,18.466));
#2119=CARTESIAN_POINT('',(134.830413385827,-89.934586614173,18.466));
#2120=CARTESIAN_POINT('',(134.830413385827,-89.934586614173,18.466));
#2121=CARTESIAN_POINT('',(128.830413385827,-95.934586614173,18.466));
#2122=CARTESIAN_POINT('Origin',(128.830413385827,-89.934586614173,18.466));
#2123=CARTESIAN_POINT('',(123.830413385827,-95.934586614173,18.466));
#2124=CARTESIAN_POINT('',(123.830413385827,-95.934586614173,18.466));
#2125=CARTESIAN_POINT('',(117.830413385827,-89.934586614173,18.466));
#2126=CARTESIAN_POINT('Origin',(123.830413385827,-89.934586614173,18.466));
#2127=CARTESIAN_POINT('',(117.830413385827,-84.934586614173,18.466));
#2128=CARTESIAN_POINT('',(117.830413385827,-84.934586614173,18.466));
#2129=CARTESIAN_POINT('Origin',(123.830413385827,-84.934586614173,18.466));
#2130=CARTESIAN_POINT('Origin',(123.830413385827,-89.934586614173,18.466));
#2131=CARTESIAN_POINT('',(123.830413385827,-95.934586614173,17.466));
#2132=CARTESIAN_POINT('',(123.830413385827,-95.934586614173,18.466));
#2133=CARTESIAN_POINT('',(117.830413385827,-89.934586614173,17.466));
#2134=CARTESIAN_POINT('Origin',(123.830413385827,-89.934586614173,17.466));
#2135=CARTESIAN_POINT('',(117.830413385827,-89.934586614173,18.466));
#2136=CARTESIAN_POINT('Origin',(117.830413385827,-84.934586614173,18.466));
#2137=CARTESIAN_POINT('',(117.830413385827,-84.934586614173,17.466));
#2138=CARTESIAN_POINT('',(117.830413385827,-84.934586614173,17.466));
#2139=CARTESIAN_POINT('',(117.830413385827,-84.934586614173,18.466));
#2140=CARTESIAN_POINT('Origin',(123.830413385827,-84.934586614173,18.466));
#2141=CARTESIAN_POINT('',(123.830413385827,-78.934586614173,17.466));
#2142=CARTESIAN_POINT('Origin',(123.830413385827,-84.934586614173,17.466));
#2143=CARTESIAN_POINT('',(123.830413385827,-78.934586614173,18.466));
#2144=CARTESIAN_POINT('Origin',(129.340000000036,-54.975,7.20499999999997));
#2145=CARTESIAN_POINT('Origin',(129.340000000036,-54.975,10.455));
#2146=CARTESIAN_POINT('Origin',(127.730000000036,-54.975,10.455));
#2147=CARTESIAN_POINT('Origin',(133.2875,-75.216673228346,13.));
#2148=CARTESIAN_POINT('',(137.7,-72.716673228346,10.5));
#2149=CARTESIAN_POINT('',(133.2875,-72.716673228346,10.5));
#2150=CARTESIAN_POINT('',(137.7,-77.716673228346,15.5));
#2151=CARTESIAN_POINT('',(137.7,-66.6562549212595,4.43958169291352));
#2152=CARTESIAN_POINT('',(133.2875,-77.716673228346,15.5));
#2153=CARTESIAN_POINT('Origin',(126.375,-77.716673228346,14.));
#2154=CARTESIAN_POINT('',(137.7,-77.716673228346,17.466));
#2155=CARTESIAN_POINT('',(137.7,-77.716673228346,4.5));
#2156=CARTESIAN_POINT('',(126.375,-77.716673228346,17.466));
#2157=CARTESIAN_POINT('Origin',(137.7,-97.1525,-2.));
#2158=CARTESIAN_POINT('',(137.7,-97.1525,17.466));
#2159=CARTESIAN_POINT('',(132.0375,-97.1525,17.466));
#2160=CARTESIAN_POINT('',(137.7,-97.1525,-2.));
#2161=CARTESIAN_POINT('Origin',(137.7,-55.975,-2.));
#2162=CARTESIAN_POINT('',(137.7,-71.7047933070865,17.466));
#2163=CARTESIAN_POINT('',(137.7,-63.595836614173,10.5));
#2164=CARTESIAN_POINT('Origin',(126.375,-87.434586614173,17.466));
#2165=CARTESIAN_POINT('',(128.830413385827,-78.934586614173,17.466));
#2166=CARTESIAN_POINT('',(128.830413385827,-78.934586614173,17.466));
#2167=CARTESIAN_POINT('',(128.830413385827,-95.934586614173,17.466));
#2168=CARTESIAN_POINT('',(123.830413385827,-95.934586614173,17.466));
#2169=CARTESIAN_POINT('',(134.830413385827,-89.934586614173,17.466));
#2170=CARTESIAN_POINT('Origin',(128.830413385827,-89.934586614173,17.466));
#2171=CARTESIAN_POINT('',(134.830413385827,-84.934586614173,17.466));
#2172=CARTESIAN_POINT('',(134.830413385827,-89.934586614173,17.466));
#2173=CARTESIAN_POINT('Origin',(128.830413385827,-84.934586614173,17.466));
#2174=CARTESIAN_POINT('Origin',(128.830413385827,-89.934586614173,18.466));
#2175=CARTESIAN_POINT('',(134.830413385827,-89.934586614173,18.466));
#2176=CARTESIAN_POINT('',(128.830413385827,-95.934586614173,18.466));
#2177=CARTESIAN_POINT('Origin',(134.830413385827,-89.934586614173,18.466));
#2178=CARTESIAN_POINT('',(134.830413385827,-84.934586614173,18.466));
#2179=CARTESIAN_POINT('Origin',(128.830413385827,-84.934586614173,18.466));
#2180=CARTESIAN_POINT('',(128.830413385827,-78.934586614173,18.466));
#2181=CARTESIAN_POINT('Origin',(140.2,-53.475,10.5));
#2182=CARTESIAN_POINT('Origin',(128.830413385827,-78.934586614173,18.466));
#2183=CARTESIAN_POINT('Origin',(123.830413385827,-95.934586614173,18.466));
#2184=UNCERTAINTY_MEASURE_WITH_UNIT(LENGTH_MEASURE(0.01),#2188,
'DISTANCE_ACCURACY_VALUE',
'Maximum model space distance between geometric entities at asserted c
onnectivities');
#2185=UNCERTAINTY_MEASURE_WITH_UNIT(LENGTH_MEASURE(0.01),#2188,
'DISTANCE_ACCURACY_VALUE',
'Maximum model space distance between geometric entities at asserted c
onnectivities');
#2186=(
GEOMETRIC_REPRESENTATION_CONTEXT(3)
GLOBAL_UNCERTAINTY_ASSIGNED_CONTEXT((#2184))
GLOBAL_UNIT_ASSIGNED_CONTEXT((#2188,#2189,#2190))
REPRESENTATION_CONTEXT('','3D')
);
#2187=(
GEOMETRIC_REPRESENTATION_CONTEXT(3)
GLOBAL_UNCERTAINTY_ASSIGNED_CONTEXT((#2185))
GLOBAL_UNIT_ASSIGNED_CONTEXT((#2188,#2189,#2190))
REPRESENTATION_CONTEXT('','3D')
);
#2188=(
LENGTH_UNIT()
NAMED_UNIT(*)
SI_UNIT(.MILLI.,.METRE.)
);
#2189=(
NAMED_UNIT(*)
PLANE_ANGLE_UNIT()
SI_UNIT($,.RADIAN.)
);
#2190=(
NAMED_UNIT(*)
SI_UNIT($,.STERADIAN.)
SOLID_ANGLE_UNIT()
);
#2191=SHAPE_DEFINITION_REPRESENTATION(#2192,#2193);
#2192=PRODUCT_DEFINITION_SHAPE('',$,#2195);
#2193=SHAPE_REPRESENTATION('',(#1268),#2186);
#2194=PRODUCT_DEFINITION_CONTEXT('part definition',#2199,'design');
#2195=PRODUCT_DEFINITION('1x1 1','Touch ID Screw v3',#2196,#2194);
#2196=PRODUCT_DEFINITION_FORMATION('',$,#2201);
#2197=PRODUCT_RELATED_PRODUCT_CATEGORY('Touch ID Screw v3',
'Touch ID Screw v3',(#2201));
#2198=APPLICATION_PROTOCOL_DEFINITION('international standard',
'automotive_design',2009,#2199);
#2199=APPLICATION_CONTEXT(
'Core Data for Automotive Mechanical Design Process');
#2200=PRODUCT_CONTEXT('part definition',#2199,'mechanical');
#2201=PRODUCT('1x1 1','Touch ID Screw v3','KiCad electronic assembly',(#2200));
#2202=PRESENTATION_STYLE_ASSIGNMENT((#2205));
#2203=PRESENTATION_STYLE_ASSIGNMENT((#2206));
#2204=PRESENTATION_STYLE_ASSIGNMENT((#2207));
#2205=SURFACE_STYLE_USAGE(.BOTH.,#2208);
#2206=SURFACE_STYLE_USAGE(.BOTH.,#2209);
#2207=SURFACE_STYLE_USAGE(.BOTH.,#2210);
#2208=SURFACE_SIDE_STYLE('',(#2211));
#2209=SURFACE_SIDE_STYLE('',(#2212));
#2210=SURFACE_SIDE_STYLE('',(#2213));
#2211=SURFACE_STYLE_FILL_AREA(#2214);
#2212=SURFACE_STYLE_FILL_AREA(#2215);
#2213=SURFACE_STYLE_FILL_AREA(#2216);
#2214=FILL_AREA_STYLE('Steel - Satin',(#2217));
#2215=FILL_AREA_STYLE('Paint - Enamel Glossy (White)',(#2218));
#2216=FILL_AREA_STYLE('ABS (White)',(#2219));
#2217=FILL_AREA_STYLE_COLOUR('Steel - Satin',#2220);
#2218=FILL_AREA_STYLE_COLOUR('Paint - Enamel Glossy (White)',#2221);
#2219=FILL_AREA_STYLE_COLOUR('ABS (White)',#2222);
#2220=COLOUR_RGB('Steel - Satin',0.627450980392157,0.627450980392157,0.627450980392157);
#2221=COLOUR_RGB('Paint - Enamel Glossy (White)',0.964705882352941,0.964705882352941,
0.952941176470588);
#2222=COLOUR_RGB('ABS (White)',0.843137254901961,0.701960784313725,0.188235294117647);
ENDSEC;
END-ISO-10303-21;
